<?xml version="1.0" encoding="utf-8"?>
<!-- Generator: Adobe Illustrator 25.2.0, SVG Export Plug-In . SVG Version: 6.00 Build 0)  -->
<svg version="1.1" id="Layer_1" xmlns="http://www.w3.org/2000/svg" xmlns:xlink="http://www.w3.org/1999/xlink" x="0px" y="0px"
	 viewBox="0 0 24 24" style="enable-background:new 0 0 24 24;" xml:space="preserve">
<path class="st0" d="M21,4.1c-0.3-0.4-0.7-0.8-1.1-1.1c-1-0.7-2.2-1-3.7-1H7.8C7.6,2,7.4,2,7.2,2C3.9,2.2,2,4.4,2,7.8v8.4
	c0,1.5,0.4,2.7,1,3.7c0.3,0.4,0.7,0.8,1.1,1.1c0.8,0.6,1.9,0.9,3.1,1c0.2,0,0.4,0,0.6,0h8.4c3.6,0,5.8-2.2,5.8-5.8V7.8
	C22,6.3,21.6,5.1,21,4.1z M18.8,8.9c0,0.4-0.3,0.8-0.8,0.8s-0.8-0.3-0.8-0.8V7.7c0-0.3-0.3-0.6-0.6-0.6h-3.9v9.7h1.8
	c0.4,0,0.8,0.3,0.8,0.8s-0.3,0.8-0.8,0.8H9.5c-0.4,0-0.8-0.3-0.8-0.8s0.3-0.8,0.8-0.8h1.8V7.1H7.3C7,7.1,6.8,7.4,6.8,7.7v1.2
	c0,0.4-0.3,0.8-0.8,0.8S5.2,9.3,5.2,8.9V7.7c0-1.1,0.9-2.1,2.1-2.1h9.3c1.1,0,2.1,0.9,2.1,2.1L18.8,8.9L18.8,8.9z"/>
</svg>
