<?xml version="1.0" encoding="utf-8"?>
<!-- Generator: Adobe Illustrator 25.2.0, SVG Export Plug-In . SVG Version: 6.00 Build 0)  -->
<svg version="1.1" id="Layer_1" xmlns="http://www.w3.org/2000/svg" xmlns:xlink="http://www.w3.org/1999/xlink" x="0px" y="0px"
	 viewBox="0 0 24 24" style="enable-background:new 0 0 24 24;" xml:space="preserve">
<path class="st0" d="M10,22.8c-0.2,0-0.4,0-0.5-0.1c-0.4-0.2-1.1-0.6-1.1-2.2V14H6.1c-1.3,0-1.8-0.6-2-1c-0.2-0.4-0.3-1.2,0.6-2.2
	l7.6-8.6c1-1.2,1.8-1.1,2.2-0.9c0.4,0.1,1.1,0.6,1.1,2.2V10h2.3c1.3,0,1.8,0.6,2,1c0.2,0.4,0.3,1.1-0.6,2.2l-7.6,8.6
	C11.1,22.5,10.4,22.8,10,22.8z M13.9,2.7c0,0-0.2,0.1-0.6,0.5l-7.6,8.6c-0.3,0.3-0.3,0.5-0.3,0.6c0,0,0.2,0.1,0.6,0.1h3.1
	c0.4,0,0.8,0.3,0.8,0.8v7.2c0,0.5,0.1,0.7,0.1,0.8c0,0,0.2-0.1,0.6-0.5l7.6-8.6c0.3-0.3,0.3-0.5,0.3-0.6c0,0-0.2-0.1-0.6-0.1h-3.1
	c-0.4,0-0.8-0.3-0.8-0.8V3.5C14.1,3,14,2.8,13.9,2.7z"/>
</svg>
