<?xml version="1.0" encoding="utf-8"?>
<!-- Generator: Adobe Illustrator 25.2.0, SVG Export Plug-In . SVG Version: 6.00 Build 0)  -->
<svg version="1.1" id="Layer_1" xmlns="http://www.w3.org/2000/svg" xmlns:xlink="http://www.w3.org/1999/xlink" x="0px" y="0px"
	 viewBox="0 0 24 24" style="enable-background:new 0 0 24 24;" xml:space="preserve">
<path class="st0" d="M20.1,9.2c-1.8,0-2.6-1.3-1.6-2.9c0.5-0.9,0.2-2.1-0.7-2.6l-1.7-1c-0.8-0.5-1.8-0.2-2.3,0.6l-0.1,0.2
	c-0.9,1.6-2.4,1.6-3.3,0l-0.1-0.2C9.8,2.6,8.8,2.3,8,2.8l-1.7,1C5.3,4.3,5,5.5,5.5,6.4c0.9,1.6,0.2,2.8-1.6,2.8
	c-1,0-1.9,0.8-1.9,1.9v1.8c0,1,0.8,1.9,1.9,1.9c1.8,0,2.5,1.3,1.6,2.8c-0.5,0.9-0.2,2.1,0.7,2.6l1.7,1c0.8,0.5,1.8,0.2,2.3-0.6
	l0.1-0.2c0.9-1.6,2.4-1.6,3.3,0l0.1,0.2c0.5,0.8,1.5,1.1,2.3,0.6l1.7-1c0.9-0.5,1.2-1.7,0.7-2.6c-0.9-1.6-0.2-2.8,1.6-2.8
	c1,0,1.9-0.8,1.9-1.9v-1.8C22,10.1,21.1,9.2,20.1,9.2z M12,15.3c-1.8,0-3.2-1.5-3.2-3.2s1.5-3.2,3.2-3.2s3.2,1.5,3.2,3.2
	S13.8,15.3,12,15.3z"/>
</svg>
