<?xml version="1.0" encoding="utf-8"?>
<!-- Generator: Adobe Illustrator 25.2.0, SVG Export Plug-In . SVG Version: 6.00 Build 0)  -->
<svg version="1.1" id="Layer_1" xmlns="http://www.w3.org/2000/svg" xmlns:xlink="http://www.w3.org/1999/xlink" x="0px" y="0px"
	 viewBox="0 0 24 24" style="enable-background:new 0 0 24 24;" xml:space="preserve">
<g>
	<path class="st0" d="M12,15.8c-2.1,0-3.8-1.7-3.8-3.8c0-2.1,1.7-3.8,3.8-3.8c2.1,0,3.8,1.7,3.8,3.8c0,0.4-0.3,0.8-0.8,0.8
		s-0.8-0.3-0.8-0.8c0-1.2-1-2.2-2.2-2.2c-1.2,0-2.2,1-2.2,2.2c0,1.2,1,2.2,2.2,2.2c0.3,0,0.6-0.1,0.9-0.2c0.4-0.2,0.8,0,1,0.4
		c0.2,0.4,0,0.8-0.4,1C13,15.6,12.5,15.8,12,15.8z"/>
</g>
<g>
	<path class="st0" d="M15.2,22.2c-0.2,0-0.4,0-0.6-0.1c-0.6-0.2-1.1-0.6-1.5-1.1L13,20.8c-0.3-0.5-0.7-0.8-1-0.8c0,0,0,0,0,0
		c-0.3,0-0.7,0.3-1,0.8L10.9,21c-0.7,1.2-2.2,1.5-3.3,0.9l-1.1-0.6c-0.4-0.2-0.5-0.7-0.3-1c0.2-0.4,0.7-0.5,1-0.3l1.1,0.6
		c0.4,0.3,1,0.1,1.3-0.3L9.7,20c0.6-1,1.4-1.5,2.3-1.6c0,0,0,0,0,0c0.9,0,1.7,0.6,2.3,1.6l0.1,0.2c0.3,0.4,0.8,0.6,1.2,0.3l1.7-1
		c0.3-0.2,0.5-0.4,0.5-0.7s0-0.6-0.1-0.9c-0.6-1-0.6-2-0.2-2.8c0.4-0.8,1.4-1.2,2.5-1.2c0.6,0,1.1-0.5,1.1-1.2v-1.8
		c0-0.6-0.5-1.1-1.1-1.1c-1.3,0-2.3-0.6-2.6-1.5c-0.3-0.7-0.2-1.6,0.3-2.5C18,5.7,18,5.4,17.9,5.1c-0.1-0.3-0.3-0.5-0.5-0.7L16.6,4
		c-0.4-0.2-0.5-0.7-0.3-1c0.2-0.4,0.7-0.5,1-0.3l0.8,0.5c0.6,0.4,1.1,0.9,1.2,1.6c0.2,0.7,0.1,1.4-0.3,2c-0.3,0.5-0.4,0.9-0.2,1.2
		c0.1,0.4,0.6,0.6,1.2,0.6c1.5,0,2.6,1.2,2.6,2.6v1.8c0,1.5-1.2,2.7-2.6,2.7c-0.6,0-1,0.2-1.2,0.5c-0.2,0.3-0.1,0.8,0.2,1.3
		c0.4,0.6,0.4,1.3,0.3,2c-0.2,0.7-0.6,1.3-1.2,1.6l-1.7,1C16,22.1,15.6,22.2,15.2,22.2z"/>
</g>
<g>
	<path class="st0" d="M5.5,18.4c-0.1,0-0.3,0-0.4-0.1c-0.4-0.2-0.5-0.7-0.3-1c0.3-0.5,0.4-1,0.2-1.3c-0.2-0.3-0.6-0.5-1.2-0.5
		c-1.5,0-2.6-1.2-2.6-2.7v-1.8c0-1.5,1.2-2.7,2.6-2.7c0.6,0,1-0.2,1.2-0.5c0.2-0.3,0.1-0.7-0.2-1.3c-0.7-1.3-0.3-2.9,1-3.6l1.7-1
		c0.5-0.3,1.2-0.4,1.8-0.3C10,2.1,10.6,2.5,10.9,3L11,3.2C11.3,3.7,11.7,4,12,4c0,0,0,0,0,0c0.3,0,0.7-0.3,1-0.8
		c0.2-0.4,0.7-0.5,1-0.3c0.4,0.2,0.5,0.7,0.3,1c-0.6,1-1.4,1.6-2.3,1.6c0,0,0,0,0,0c-0.9,0-1.7-0.6-2.3-1.6L9.6,3.8
		C9.5,3.6,9.3,3.4,9,3.3c-0.2-0.1-0.5,0-0.7,0.1l-1.7,1C6.1,4.7,5.9,5.5,6.2,6c0.6,1,0.6,2,0.2,2.7C5.9,9.5,5,10,3.9,10
		c-0.6,0-1.1,0.5-1.1,1.2v1.8c0,0.6,0.5,1.2,1.1,1.2c1.1,0,2,0.4,2.5,1.2S6.8,17,6.2,18C6,18.2,5.8,18.4,5.5,18.4z"/>
</g>
</svg>
