<?xml version="1.0" encoding="utf-8"?>
<!-- Generator: Adobe Illustrator 25.2.0, SVG Export Plug-In . SVG Version: 6.00 Build 0)  -->
<svg version="1.1" id="Layer_1" xmlns="http://www.w3.org/2000/svg" xmlns:xlink="http://www.w3.org/1999/xlink" x="0px" y="0px"
	 viewBox="0 0 24 24" style="enable-background:new 0 0 24 24;" xml:space="preserve">
<style type="text/css">
	.st0{fill:none;}
</style>
<path class="st0" d="M12,13.8c-0.4,0-0.8-0.3-0.8-0.8V7.8C11.2,7.3,11.6,7,12,7s0.8,0.3,0.8,0.8V13C12.8,13.4,12.4,13.8,12,13.8z"/>
<path class="st0" d="M12,17.2c-0.3,0-0.5-0.1-0.7-0.3c-0.1-0.1-0.2-0.2-0.2-0.3c0-0.1-0.1-0.2-0.1-0.4c0-0.3,0.1-0.5,0.3-0.7
	c0.4-0.4,1.1-0.4,1.4,0c0.2,0.2,0.3,0.4,0.3,0.7c0,0.1,0,0.3-0.1,0.4c-0.1,0.1-0.1,0.2-0.2,0.3C12.5,17.1,12.3,17.2,12,17.2z"/>
<path class="st0" d="M12,22.8c-0.7,0-1.4-0.2-1.9-0.5l-5.9-3.4c-1.2-0.7-2-2-2-3.4V8.6c0-1.4,0.8-2.7,2-3.4l5.9-3.4
	c1.2-0.7,2.7-0.7,3.9,0l5.9,3.4c1.2,0.7,2,2,2,3.4v6.8c0,1.4-0.8,2.7-2,3.4L14,22.2C13.4,22.6,12.7,22.8,12,22.8z M12,2.8
	c-0.4,0-0.8,0.1-1.2,0.3L4.9,6.5C4.1,6.9,3.7,7.7,3.7,8.6v6.8c0,0.8,0.5,1.7,1.2,2.1l5.9,3.4c0.7,0.4,1.7,0.4,2.4,0l5.9-3.4
	c0.7-0.4,1.2-1.2,1.2-2.1V8.6c0-0.8-0.5-1.7-1.2-2.1l-5.9-3.4C12.8,2.9,12.4,2.8,12,2.8z"/>
</svg>
