<?xml version="1.0" encoding="utf-8"?>
<!-- Generator: Adobe Illustrator 25.2.0, SVG Export Plug-In . SVG Version: 6.00 Build 0)  -->
<svg version="1.1" id="Layer_1" xmlns="http://www.w3.org/2000/svg" xmlns:xlink="http://www.w3.org/1999/xlink" x="0px" y="0px"
	 viewBox="0 0 24 24" style="enable-background:new 0 0 24 24;" xml:space="preserve">
<style type="text/css">
	.st0{fill:none;}
</style>
<path class="st0" d="M19.5,5.8l-5.9-3.4c-1-0.6-2.2-0.6-3.1,0L4.5,5.8c-1,0.6-1.6,1.6-1.6,2.7v6.8c0,1.1,0.6,2.2,1.6,2.7l5.9,3.4
	c1,0.6,2.2,0.6,3.1,0l5.9-3.4c1-0.6,1.6-1.6,1.6-2.7V8.6C21.1,7.4,20.5,6.4,19.5,5.8z M11.2,7.8C11.2,7.3,11.6,7,12,7
	s0.8,0.3,0.8,0.8V13c0,0.4-0.3,0.8-0.8,0.8s-0.8-0.3-0.8-0.8V7.8z M12.9,16.6c-0.1,0.1-0.1,0.2-0.2,0.3c-0.2,0.2-0.4,0.3-0.7,0.3
	c-0.1,0-0.3,0-0.4-0.1c-0.1,0-0.2-0.1-0.3-0.2c-0.1-0.1-0.2-0.2-0.2-0.3c0-0.1-0.1-0.2-0.1-0.4c0-0.3,0.1-0.5,0.3-0.7
	c0.1-0.1,0.2-0.2,0.3-0.2c0.4-0.2,0.8-0.1,1.1,0.2c0.1,0.1,0.2,0.2,0.2,0.3C13,16,13,16.1,13,16.2S13,16.5,12.9,16.6z"/>
</svg>
