<?xml version="1.0" encoding="utf-8"?>
<!-- Generator: Adobe Illustrator 25.2.0, SVG Export Plug-In . SVG Version: 6.00 Build 0)  -->
<svg version="1.1" id="Layer_1" xmlns="http://www.w3.org/2000/svg" xmlns:xlink="http://www.w3.org/1999/xlink" x="0px" y="0px"
	 viewBox="0 0 24 24" style="enable-background:new 0 0 24 24;" xml:space="preserve">
<path class="st0" d="M21.1,5.2c-1.6-0.2-3.2-0.3-4.8-0.4v0L16,3.5c-0.2-0.9-0.4-2.3-2.7-2.3h-2.6C8.3,1.2,8.1,2.6,8,3.5L7.8,4.8
	C6.8,4.9,5.9,4.9,5,5l-2,0.2c-0.4,0-0.7,0.4-0.7,0.8c0,0.4,0.4,0.7,0.8,0.7l2-0.2C10.3,6,15.6,6.2,20.9,6.7c0,0,0,0,0.1,0
	c0.4,0,0.7-0.3,0.8-0.7C21.8,5.6,21.5,5.3,21.1,5.2z"/>
<path class="st0" d="M19.2,8.1c-0.2-0.3-0.6-0.4-0.9-0.4H5.7C5.3,7.8,5,7.9,4.8,8.1C4.5,8.4,4.4,8.7,4.4,9.1L5,19.3
	c0.1,1.5,0.2,3.4,3.7,3.4h6.4c3.5,0,3.6-1.9,3.7-3.4l0.6-10.2C19.6,8.7,19.5,8.4,19.2,8.1z M13.7,17.8h-3.3c-0.4,0-0.7-0.3-0.7-0.8
	s0.3-0.8,0.7-0.8h3.3c0.4,0,0.8,0.3,0.8,0.8S14.1,17.8,13.7,17.8z M14.5,13.8h-5c-0.4,0-0.8-0.3-0.8-0.8s0.3-0.8,0.8-0.8h5
	c0.4,0,0.8,0.3,0.8,0.8S14.9,13.8,14.5,13.8z"/>
</svg>
