<?xml version="1.0" encoding="utf-8"?>
<!-- Generator: Adobe Illustrator 25.2.0, SVG Export Plug-In . SVG Version: 6.00 Build 0)  -->
<svg version="1.1" id="Layer_1" xmlns="http://www.w3.org/2000/svg" xmlns:xlink="http://www.w3.org/1999/xlink" x="0px" y="0px"
	 viewBox="0 0 24 24" style="enable-background:new 0 0 24 24;" xml:space="preserve">
<g>
	<path class="st0" d="M21,6.7C21,6.7,21,6.7,21,6.7C15.6,6.2,10.3,6,5.1,6.5l-2,0.2c-0.4,0-0.8-0.3-0.8-0.7s0.3-0.8,0.7-0.8L5,5
		c5.3-0.5,10.7-0.3,16.1,0.2c0.4,0,0.7,0.4,0.7,0.8C21.7,6.4,21.4,6.7,21,6.7z"/>
</g>
<g>
	<path class="st0" d="M15.5,5.7c-0.4,0-0.7-0.3-0.7-0.6l-0.2-1.3c-0.1-0.9-0.2-1-1.2-1h-2.6c-1.1,0-1.1,0.1-1.2,1L9.2,5.1
		C9.2,5.5,8.8,5.8,8.4,5.7C8,5.6,7.7,5.3,7.8,4.8L8,3.5c0.2-1,0.4-2.3,2.7-2.3h2.6c2.3,0,2.6,1.4,2.7,2.3l0.2,1.3
		c0.1,0.4-0.2,0.8-0.6,0.9C15.6,5.7,15.5,5.7,15.5,5.7z"/>
</g>
<g>
	<path class="st0" d="M15.2,22.8H8.8c-3.5,0-3.6-1.9-3.7-3.5L4.4,9.2c0-0.4,0.3-0.8,0.7-0.8c0.4,0,0.8,0.3,0.8,0.7l0.6,10.1
		c0.1,1.5,0.1,2.1,2.2,2.1h6.4c0.4,0,0.8,0.3,0.8,0.8S15.6,22.8,15.2,22.8z"/>
</g>
<g>
	<path class="st0" d="M18.2,20C18.2,20,18.2,20,18.2,20c-0.5,0-0.8-0.4-0.7-0.8l0.7-10.1c0-0.4,0.4-0.7,0.8-0.7
		c0.4,0,0.7,0.4,0.7,0.8l-0.7,10.1C18.9,19.7,18.6,20,18.2,20z"/>
</g>
<g>
	<path class="st0" d="M13.7,17.2h-3.3c-0.4,0-0.8-0.3-0.8-0.8s0.3-0.8,0.8-0.8h3.3c0.4,0,0.8,0.3,0.8,0.8S14.1,17.2,13.7,17.2z"/>
</g>
<g>
	<path class="st0" d="M14.5,13.2h-1.7c-0.4,0-0.8-0.3-0.8-0.8s0.3-0.8,0.8-0.8h1.7c0.4,0,0.8,0.3,0.8,0.8S14.9,13.2,14.5,13.2z"/>
</g>
<g>
	<path class="st0" d="M10.3,13.2H9.5c-0.4,0-0.8-0.3-0.8-0.8s0.3-0.8,0.8-0.8h0.8c0.4,0,0.8,0.3,0.8,0.8S10.7,13.2,10.3,13.2z"/>
</g>
</svg>
