<?xml version="1.0" encoding="utf-8"?>
<!-- Generator: Adobe Illustrator 25.2.0, SVG Export Plug-In . SVG Version: 6.00 Build 0)  -->
<svg version="1.1" id="Layer_1" xmlns="http://www.w3.org/2000/svg" xmlns:xlink="http://www.w3.org/1999/xlink" x="0px" y="0px"
	 viewBox="0 0 24 24" style="enable-background:new 0 0 24 24;" xml:space="preserve">
<path class="st0" d="M12,12.3c-0.4,0-0.9-0.1-1.3-0.3L4.2,8.4c-0.6-0.3-1-1-1-1.7s0.4-1.3,1-1.7l6.5-3.5c0.8-0.4,1.8-0.4,2.6,0
	l6.5,3.5c0.6,0.3,1,0.9,1,1.7s-0.4,1.3-1,1.7l-6.5,3.5C12.9,12.2,12.4,12.3,12,12.3z M12,2.8c-0.2,0-0.4,0-0.6,0.1L4.9,6.4
	C4.8,6.5,4.8,6.7,4.8,6.8s0,0.2,0.2,0.3l6.5,3.5c0.4,0.2,0.8,0.2,1.1,0l6.5-3.5c0.2-0.1,0.2-0.3,0.2-0.3c0-0.1,0-0.2-0.2-0.3
	l-6.5-3.5C12.4,2.8,12.2,2.8,12,2.8z"/>
<path class="st0" d="M9.8,22.7c-0.3,0-0.6-0.1-0.8-0.2l-6.1-3c-1-0.5-1.6-1.5-1.6-2.7v-5.7c0-0.6,0.3-1.2,0.9-1.6
	c0.6-0.3,1.2-0.4,1.8-0.1l6.1,3c1,0.5,1.6,1.5,1.6,2.7v5.7c0,0.6-0.3,1.2-0.9,1.6C10.5,22.6,10.1,22.7,9.8,22.7z M3.1,10.8
	c-0.1,0-0.1,0-0.2,0.1c-0.1,0-0.2,0.1-0.2,0.3v5.7c0,0.6,0.3,1.1,0.8,1.3l6,3c0.2,0.1,0.3,0,0.4,0c0.1,0,0.2-0.1,0.2-0.3v-5.7
	c0-0.6-0.3-1.1-0.8-1.3l-6-3C3.2,10.8,3.2,10.8,3.1,10.8z"/>
<path class="st0" d="M14.2,22.7c-0.3,0-0.7-0.1-1-0.3c-0.6-0.3-0.9-0.9-0.9-1.6v-5.7c0-1.1,0.6-2.2,1.6-2.7l6.1-3
	c0.6-0.3,1.3-0.3,1.8,0.1c0.6,0.3,0.9,0.9,0.9,1.6v5.7c0,1.1-0.6,2.1-1.6,2.7l-6,3C14.8,22.7,14.5,22.7,14.2,22.7z M20.9,10.8
	c-0.1,0-0.1,0-0.2,0l-6.1,3c-0.5,0.2-0.8,0.8-0.8,1.3v5.7c0,0.2,0.1,0.3,0.2,0.3c0.1,0,0.2,0.1,0.3,0l6.1-3c0.5-0.2,0.8-0.8,0.8-1.3
	v-5.7c0-0.2-0.1-0.3-0.2-0.3C21,10.8,21,10.8,20.9,10.8z"/>
</svg>
