<?xml version="1.0" encoding="utf-8"?>
<!-- Generator: Adobe Illustrator 25.2.0, SVG Export Plug-In . SVG Version: 6.00 Build 0)  -->
<svg version="1.1" id="Layer_1" xmlns="http://www.w3.org/2000/svg" xmlns:xlink="http://www.w3.org/1999/xlink" x="0px" y="0px"
	 viewBox="0 0 24 24" style="enable-background:new 0 0 24 24;" xml:space="preserve">
<path class="st0" d="M19.3,5.7l-6.3-3.4c-0.7-0.4-1.5-0.4-2.1,0L4.7,5.7C4.2,5.9,3.9,6.4,3.9,7c0,0.5,0.3,1,0.7,1.3l6.3,3.4
	c0.3,0.2,0.7,0.3,1.1,0.3c0.4,0,0.7-0.1,1.1-0.3l6.3-3.4C19.8,8,20.1,7.5,20.1,7S19.8,5.9,19.3,5.7z"/>
<path class="st0" d="M9.9,12.8L4.1,9.9c-0.5-0.2-1-0.2-1.4,0.1C2.2,10.2,2,10.6,2,11.1v5.5c0,1,0.5,1.8,1.4,2.2l5.8,2.9
	C9.4,21.9,9.6,22,9.9,22c0.3,0,0.5-0.1,0.8-0.2c0.4-0.3,0.7-0.7,0.7-1.2V15C11.3,14.1,10.8,13.2,9.9,12.8z"/>
<path class="st0" d="M21.3,9.9c-0.4-0.3-0.9-0.3-1.4-0.1l-5.8,2.9c-0.9,0.4-1.4,1.3-1.4,2.2v5.5c0,0.5,0.2,1,0.7,1.2
	c0.2,0.1,0.5,0.2,0.8,0.2c0.2,0,0.4-0.1,0.6-0.1l5.8-2.9c0.8-0.4,1.4-1.3,1.4-2.2v-5.5C22,10.7,21.8,10.2,21.3,9.9z"/>
</svg>
