<?xml version="1.0" encoding="utf-8"?>
<!-- Generator: Adobe Illustrator 25.2.0, SVG Export Plug-In . SVG Version: 6.00 Build 0)  -->
<svg version="1.1" id="Layer_1" xmlns="http://www.w3.org/2000/svg" xmlns:xlink="http://www.w3.org/1999/xlink" x="0px" y="0px"
	 viewBox="0 0 24 24" style="enable-background:new 0 0 24 24;" xml:space="preserve">
<path class="st0" d="M22,16.8l-3.1-7.3c-0.6-1.3-1.4-2.1-2.4-2.2c-1,0-1.9,0.6-2.6,1.9L12,12.7c-0.4,0.7-1,1.1-1.6,1.2
	c-0.6,0.1-1.3-0.3-1.8-0.9l-0.2-0.3c-0.7-0.9-1.6-1.3-2.5-1.2s-1.7,0.7-2.2,1.7L2,16.6c-0.6,1.2-0.6,2.7,0.2,3.9
	c0.7,1.2,2,1.9,3.4,1.9h12.8c1.3,0,2.6-0.7,3.3-1.8C22.4,19.5,22.5,18.1,22,16.8z"/>
<path class="st0" d="M7,8.4c1.9,0,3.4-1.5,3.4-3.4c0-1.9-1.5-3.4-3.4-3.4C5.1,1.6,3.6,3.1,3.6,5C3.6,6.9,5.1,8.4,7,8.4z"/>
</svg>
