<?xml version="1.0" encoding="utf-8"?>
<!-- Generator: Adobe Illustrator 25.2.0, SVG Export Plug-In . SVG Version: 6.00 Build 0)  -->
<svg version="1.1" id="Layer_1" xmlns="http://www.w3.org/2000/svg" xmlns:xlink="http://www.w3.org/1999/xlink" x="0px" y="0px"
	 viewBox="0 0 24 24" style="enable-background:new 0 0 24 24;" xml:space="preserve">
<g>
	<path class="st0" d="M18.3,22.8H5.6c-1.5,0-2.9-0.8-3.7-2.1c-0.8-1.3-0.9-2.9-0.2-4.2L3.4,13c0.6-1.1,1.5-1.8,2.5-1.9
		c1-0.1,2,0.4,2.8,1.4l0.2,0.3c0.4,0.5,0.9,0.8,1.5,0.8c0.5,0,1-0.4,1.3-1c0.2-0.4,0.7-0.5,1-0.3c0.4,0.2,0.5,0.7,0.3,1
		c-0.6,1-1.5,1.7-2.5,1.8c-1,0.1-2-0.4-2.8-1.3l-0.2-0.3c-0.5-0.6-1-0.9-1.5-0.8c-0.5,0.1-1,0.4-1.3,1.1L3,17.1
		C2.6,18,2.6,19,3.2,19.9c0.5,0.9,1.4,1.4,2.4,1.4h12.8c1,0,1.8-0.5,2.4-1.3c0.5-0.8,0.6-1.8,0.2-2.7l-3.1-7.3
		c-0.4-0.9-0.9-1.4-1.4-1.5c-0.5,0-1.1,0.5-1.6,1.3c-0.2,0.4-0.7,0.5-1,0.3c-0.4-0.2-0.5-0.7-0.3-1c0.8-1.4,1.8-2.2,2.9-2.1
		c1.1,0.1,2.1,0.9,2.7,2.4l3.1,7.3c0.6,1.4,0.4,2.9-0.4,4.1C21.2,22,19.8,22.8,18.3,22.8z"/>
</g>
<g>
	<path class="st0" d="M7,8.8C4.9,8.8,3.2,7.1,3.2,5S4.9,1.2,7,1.2c0.5,0,0.9,0.1,1.3,0.2c0.4,0.1,0.6,0.6,0.4,1
		C8.5,2.8,8.1,3,7.7,2.9C7.5,2.8,7.2,2.8,7,2.8c-1.2,0-2.2,1-2.2,2.2s1,2.2,2.2,2.2s2.2-1,2.2-2.2c0-0.4,0.3-0.8,0.8-0.8
		s0.8,0.3,0.8,0.8C10.7,7.1,9,8.8,7,8.8z"/>
</g>
</svg>
