<?xml version="1.0" encoding="utf-8"?>
<!-- Generator: Adobe Illustrator 25.2.0, SVG Export Plug-In . SVG Version: 6.00 Build 0)  -->
<svg version="1.1" id="Layer_1" xmlns="http://www.w3.org/2000/svg" xmlns:xlink="http://www.w3.org/1999/xlink" x="0px" y="0px"
	 viewBox="0 0 24 24" style="enable-background:new 0 0 24 24;" xml:space="preserve">
<g>
	<path class="st0" d="M12,19.3c-4,0-7.2-3.3-7.2-7.2c0-1.7,0.6-3.3,1.7-4.6C6.7,7.1,7.2,7,7.5,7.3C7.8,7.5,7.8,8,7.6,8.3
		c-0.9,1-1.3,2.3-1.3,3.7c0,3.2,2.6,5.8,5.8,5.8c3.2,0,5.8-2.6,5.8-5.8c0-3.2-2.6-5.8-5.8-5.8c-0.4,0-0.8-0.3-0.8-0.8
		s0.3-0.8,0.8-0.8c4,0,7.2,3.3,7.2,7.3C19.2,16,16,19.3,12,19.3z"/>
</g>
<g>
	<path class="st0" d="M12,23c-0.6,0-1-0.4-1-1v-0.1c0-0.6,0.4-1,1-1s1,0.4,1,1S12.6,23,12,23z M19.1,20.1c-0.3,0-0.5-0.1-0.7-0.3
		l-0.1-0.1c-0.4-0.4-0.4-1,0-1.4s1-0.4,1.4,0l0.1,0.1c0.4,0.4,0.4,1,0,1.4C19.7,20,19.4,20.1,19.1,20.1z M4.9,20.1
		c-0.3,0-0.5-0.1-0.7-0.3c-0.2-0.2-0.3-0.5-0.3-0.7c0-0.3,0.1-0.5,0.3-0.7l0.1-0.1c0.4-0.4,1-0.4,1.4,0C5.9,18.5,6,18.8,6,19
		c0,0.3-0.1,0.5-0.3,0.7l-0.1,0.1C5.4,20,5.1,20.1,4.9,20.1z M22,13L22,13c-0.6,0-1.1-0.4-1.1-1s0.4-1,1-1s1,0.4,1,1S22.6,13,22,13z
		 M2.1,13L2.1,13C1.4,13,1,12.6,1,12s0.4-1,1-1s1,0.4,1,1S2.6,13,2.1,13z M19,6c-0.3,0-0.5-0.1-0.7-0.3S18,5.2,18,5s0.1-0.5,0.3-0.7
		l0.1-0.1c0.4-0.4,1-0.4,1.4,0c0.2,0.2,0.3,0.5,0.3,0.7S20,5.4,19.8,5.6l-0.1,0.1C19.5,5.9,19.3,6,19,6z M5,6C4.7,6,4.5,5.9,4.3,5.7
		L4.2,5.6C4,5.4,3.9,5.1,3.9,4.9c0-0.3,0.1-0.5,0.3-0.7c0.4-0.4,1-0.4,1.4,0l0.1,0.1C5.9,4.5,6,4.7,6,5c0,0.3-0.1,0.5-0.3,0.7
		C5.5,5.9,5.2,6,5,6z M12,3c-0.6,0-1-0.4-1-1V2c0-0.6,0.4-1,1-1s1,0.4,1,1S12.6,3,12,3z"/>
</g>
</svg>
