<?xml version="1.0" encoding="utf-8"?>
<!-- Generator: Adobe Illustrator 25.2.0, SVG Export Plug-In . SVG Version: 6.00 Build 0)  -->
<svg version="1.1" id="Layer_1" xmlns="http://www.w3.org/2000/svg" xmlns:xlink="http://www.w3.org/1999/xlink" x="0px" y="0px"
	 viewBox="0 0 24 24" style="enable-background:new 0 0 24 24;" xml:space="preserve">
<path class="st0" d="M12,19.3c-4,0-7.2-3.2-7.2-7.2S8,4.8,12,4.8S19.2,8,19.2,12S16,19.3,12,19.3z M12,6.3c-3.2,0-5.8,2.6-5.8,5.8
	s2.6,5.8,5.8,5.8s5.8-2.6,5.8-5.8S15.2,6.3,12,6.3z"/>
<path class="st0" d="M12,23c-0.6,0-1-0.4-1-1v-0.1c0-0.5,0.4-1,1-1s1,0.5,1,1S12.6,23,12,23z M19.1,20.1c-0.3,0-0.5-0.1-0.7-0.3
	l-0.1-0.1c-0.4-0.4-0.4-1,0-1.4c0.4-0.4,1-0.4,1.4,0l0.1,0.1c0.4,0.4,0.4,1,0,1.4C19.6,20,19.4,20.1,19.1,20.1z M4.9,20.1
	c-0.3,0-0.5-0.1-0.7-0.3c-0.4-0.4-0.4-1,0-1.4l0.1-0.1c0.4-0.4,1-0.4,1.4,0c0.4,0.4,0.4,1,0,1.4l-0.1,0.1C5.4,20,5.1,20.1,4.9,20.1z
	 M22,13L22,13c-0.6,0-1.1-0.4-1.1-1s0.5-1,1-1s1,0.4,1,1S22.5,13,22,13z M2.1,13L2.1,13C1.5,13,1,12.6,1,12s0.5-1,1-1s1,0.4,1,1
	S2.6,13,2.1,13z M19,6c-0.3,0-0.5-0.1-0.7-0.3c-0.4-0.4-0.4-1,0-1.4l0.1-0.1c0.4-0.4,1-0.4,1.4,0c0.4,0.4,0.4,1,0,1.4l-0.1,0.1
	C19.5,5.9,19.3,6,19,6z M5,6C4.7,6,4.5,5.9,4.3,5.7L4.2,5.6c-0.4-0.4-0.4-1,0-1.4s1-0.4,1.4,0l0.1,0.1c0.4,0.4,0.4,1,0,1.4
	C5.5,5.9,5.2,6,5,6z M12,3c-0.6,0-1-0.4-1-1V2c0-0.6,0.4-1,1-1s1,0.5,1,1S12.6,3,12,3z"/>
</svg>
