<?xml version="1.0" encoding="utf-8"?>
<!-- Generator: Adobe Illustrator 25.2.0, SVG Export Plug-In . SVG Version: 6.00 Build 0)  -->
<svg version="1.1" id="Layer_1" xmlns="http://www.w3.org/2000/svg" xmlns:xlink="http://www.w3.org/1999/xlink" x="0px" y="0px"
	 viewBox="0 0 24 24" style="enable-background:new 0 0 24 24;" xml:space="preserve">
<path class="st0" d="M12.9,20.9H6.8c-3.5,0-4.8-2.5-4.8-4.8V8c0-3.5,1.3-4.8,4.8-4.8h6.1c3.5,0,4.8,1.3,4.8,4.8v8.1
	C17.7,19.5,16.3,20.9,12.9,20.9z M6.8,4.7C4.2,4.7,3.5,5.3,3.5,8v8.1c0,1.2,0.4,3.3,3.3,3.3h6.1c2.6,0,3.3-0.7,3.3-3.3V8
	c0-2.6-0.7-3.3-3.3-3.3H6.8z"/>
<path class="st0" d="M20.8,18.1c-0.4,0-1-0.1-1.6-0.6l-2.7-1.9c-0.2-0.1-0.3-0.4-0.3-0.6V9c0-0.2,0.1-0.5,0.3-0.6l2.7-1.9
	c1.2-0.8,2.1-0.6,2.5-0.4c0.4,0.2,1.1,0.8,1.1,2.2v7.3c0,1.5-0.7,2-1.1,2.2C21.4,18,21.1,18.1,20.8,18.1z M17.7,14.6l2.4,1.6
	c0.5,0.3,0.8,0.3,0.9,0.3c0.1-0.1,0.3-0.3,0.3-0.9V8.3c0-0.5-0.2-0.8-0.3-0.9c-0.1-0.1-0.4,0-0.9,0.3l-2.4,1.6V14.6z"/>
<path class="st0" d="M11.5,11.8c-1.2,0-2.2-1-2.2-2.2s1-2.2,2.2-2.2s2.2,1,2.2,2.2S12.7,11.8,11.5,11.8z M11.5,8.8
	c-0.4,0-0.8,0.3-0.8,0.8s0.3,0.8,0.8,0.8s0.8-0.3,0.8-0.8S11.9,8.8,11.5,8.8z"/>
</svg>
