<?xml version="1.0" encoding="utf-8"?>
<!-- Generator: Adobe Illustrator 25.2.0, SVG Export Plug-In . SVG Version: 6.00 Build 0)  -->
<svg version="1.1" id="Layer_1" xmlns="http://www.w3.org/2000/svg" xmlns:xlink="http://www.w3.org/1999/xlink" x="0px" y="0px"
	 viewBox="0 0 24 24" style="enable-background:new 0 0 24 24;" xml:space="preserve">
<path class="st0" d="M21.1,6.2c-0.4-0.2-1.3-0.5-2.4,0.4l-1.5,1c-0.1-3.1-1.5-4.3-4.7-4.3h-6C3.1,3.2,1.8,4.6,1.8,8v8
	c0,2.3,1.2,4.8,4.8,4.8h6c3.3,0,4.6-1.2,4.7-4.3l1.5,1c0.6,0.4,1.2,0.6,1.6,0.6c0.4,0,0.7-0.1,0.9-0.2c0.4-0.2,1.1-0.8,1.1-2.2V8.4
	C22.2,6.9,21.6,6.4,21.1,6.2z M11,11.4c-1,0-1.9-0.8-1.9-1.9S10,7.6,11,7.6s1.9,0.8,1.9,1.9S12,11.4,11,11.4z"/>
</svg>
