<?xml version="1.0" encoding="utf-8"?>
<!-- Generator: Adobe Illustrator 25.2.0, SVG Export Plug-In . SVG Version: 6.00 Build 0)  -->
<svg version="1.1" id="Layer_1" xmlns="http://www.w3.org/2000/svg" xmlns:xlink="http://www.w3.org/1999/xlink" x="0px" y="0px"
	 viewBox="0 0 24 24" style="enable-background:new 0 0 24 24;" xml:space="preserve">
<g>
	<path class="st0" d="M12.5,21.2H6.2c-3.7,0-5-2.6-5-5v-4.1c0-0.4,0.3-0.8,0.8-0.8s0.8,0.3,0.8,0.8v4.1c0,1.3,0.4,3.5,3.5,3.5h6.3
		c2.7,0,3.5-0.7,3.5-3.5V7.8c0-2.7-0.7-3.5-3.5-3.5H6.2C3.5,4.3,2.8,5,2.8,7.8c0,0.4-0.3,0.8-0.8,0.8S1.2,8.2,1.2,7.8
		c0-3.6,1.4-5,5-5h6.3c3.6,0,5,1.4,5,5v8.4C17.5,19.8,16.1,21.2,12.5,21.2z"/>
</g>
<g>
	<path class="st0" d="M20.7,18.3c-0.4,0-1-0.1-1.7-0.6l-2.8-2c-0.2-0.1-0.3-0.4-0.3-0.6V8.8c0-0.2,0.1-0.5,0.3-0.6l2.8-2
		c1.2-0.8,2.1-0.6,2.5-0.4c0.4,0.2,1.1,0.8,1.1,2.3v7.6c0,1.5-0.7,2.1-1.1,2.3C21.4,18.2,21.1,18.3,20.7,18.3z M17.5,14.8l2.5,1.7
		c0,0,0,0,0,0c0.5,0.3,0.8,0.4,1,0.3c0.2-0.1,0.3-0.4,0.3-1V8.2c0-0.5-0.1-0.9-0.3-1c-0.2-0.1-0.6,0-1,0.3l-2.5,1.7V14.8z"/>
</g>
<g>
	<path class="st0" d="M11.5,11.8c-1.2,0-2.2-1-2.2-2.2s1-2.2,2.2-2.2s2.2,1,2.2,2.2c0,0.4-0.3,0.8-0.8,0.8s-0.8-0.3-0.8-0.8
		c0-0.4-0.3-0.8-0.8-0.8s-0.8,0.3-0.8,0.8s0.3,0.8,0.8,0.8c0.4,0,0.8,0.3,0.8,0.8S11.9,11.8,11.5,11.8z"/>
</g>
</svg>
