<?xml version="1.0" encoding="utf-8"?>
<!-- Generator: Adobe Illustrator 25.2.0, SVG Export Plug-In . SVG Version: 6.00 Build 0)  -->
<svg version="1.1" id="Layer_1" xmlns="http://www.w3.org/2000/svg" xmlns:xlink="http://www.w3.org/1999/xlink" x="0px" y="0px"
	 viewBox="0 0 24 24" style="enable-background:new 0 0 24 24;" xml:space="preserve">
<path class="st0" d="M15,22.8H9c-5.4,0-7.8-2.3-7.8-7.8V9c0-5.4,2.3-7.8,7.8-7.8h2c0.4,0,0.8,0.3,0.8,0.8S11.4,2.8,11,2.8H9
	C4.4,2.8,2.8,4.4,2.8,9v6c0,4.6,1.6,6.2,6.2,6.2h6c4.6,0,6.2-1.6,6.2-6.2v-2c0-0.4,0.3-0.8,0.8-0.8s0.8,0.3,0.8,0.8v2
	C22.8,20.4,20.4,22.8,15,22.8z"/>
<path class="st0" d="M8.5,17.7c-0.6,0-1.2-0.2-1.6-0.6c-0.5-0.5-0.7-1.2-0.6-2l0.4-3c0.1-0.6,0.5-1.3,0.9-1.7l7.9-7.9c2-2,4-2,6,0
	c1.1,1.1,1.6,2.2,1.5,3.3c-0.1,0.9-0.6,1.8-1.5,2.7l-7.9,7.9c-0.4,0.4-1.2,0.8-1.7,0.9l-3,0.4C8.7,17.7,8.6,17.7,8.5,17.7z
	 M16.6,3.6l-7.9,7.9c-0.2,0.2-0.4,0.6-0.4,0.9l-0.4,3c0,0.3,0,0.5,0.2,0.7c0.1,0.2,0.4,0.2,0.7,0.2l3-0.4c0.3,0,0.7-0.3,0.9-0.4
	l7.9-7.9c0.6-0.7,1-1.2,1-1.8c0.1-0.7-0.3-1.3-1-2.1C18.8,1.9,17.7,2.4,16.6,3.6z"/>
<path class="st0" d="M19.8,9.8c-0.1,0-0.1,0-0.2,0C17,9.1,14.9,7,14.2,4.3c-0.1-0.4,0.1-0.8,0.5-0.9c0.4-0.1,0.8,0.1,0.9,0.5
	c0.6,2.1,2.3,3.8,4.4,4.4c0.4,0.1,0.6,0.5,0.5,0.9C20.5,9.6,20.2,9.8,19.8,9.8z"/>
</svg>
