<?xml version="1.0" encoding="utf-8"?>
<svg version="1.1" id="Layer_1" xmlns="http://www.w3.org/2000/svg" xmlns:xlink="http://www.w3.org/1999/xlink" x="0px" y="0px"
	 viewBox="0 0 24 24" style="enable-background:new 0 0 24 24;" xml:space="preserve">
<path class="st0" d="M16.2,2H7.8C4.2,2,2,4.2,2,7.8v8.4C2,19.8,4.2,22,7.8,22h8.4c3.6,0,5.8-2.2,5.8-5.8V7.8C22,4.2,19.8,2,16.2,2z
	 M10.9,17.5c-0.3,0.3-0.8,0.6-1.2,0.6l-2.5,0.4c-0.1,0-0.2,0-0.3,0c-0.4,0-0.8-0.1-1.1-0.4c-0.3-0.3-0.5-0.8-0.4-1.3l0.3-2.5
	c0.1-0.4,0.3-0.9,0.6-1.2L11,8.6c0.1,0.2,0.2,0.4,0.3,0.7c0.1,0.2,0.2,0.4,0.3,0.6c0.1,0.2,0.2,0.3,0.3,0.4c0.1,0.2,0.2,0.3,0.3,0.4
	c0.1,0.1,0.1,0.1,0.1,0.1c0.2,0.3,0.5,0.6,0.8,0.8c0.1,0.1,0.1,0.1,0.1,0.1c0.1,0.1,0.3,0.2,0.4,0.3c0.2,0.1,0.3,0.2,0.5,0.3
	c0.2,0.1,0.4,0.2,0.6,0.3c0.2,0.1,0.4,0.2,0.7,0.3L10.9,17.5z M17.4,11.1L16.5,12c-0.1,0.1-0.1,0.1-0.2,0.1c0,0-0.1,0-0.1,0
	c-2-0.6-3.6-2.2-4.2-4.2c0-0.1,0-0.2,0.1-0.3l0.9-0.9c1.5-1.5,3-1.5,4.5,0c0.8,0.8,1.1,1.5,1.1,2.3C18.5,9.6,18.1,10.3,17.4,11.1z"
	/>
</svg>
