<?xml version="1.0" encoding="utf-8"?>
<!-- Generator: Adobe Illustrator 25.2.0, SVG Export Plug-In . SVG Version: 6.00 Build 0)  -->
<svg version="1.1" id="Layer_1" xmlns="http://www.w3.org/2000/svg" xmlns:xlink="http://www.w3.org/1999/xlink" x="0px" y="0px"
	 viewBox="0 0 24 24" style="enable-background:new 0 0 24 24;" xml:space="preserve">
<path class="st0" d="M13.7,3.5L15.5,7c0.2,0.5,0.9,1,1.4,1l3.2,0.5c2,0.3,2.5,1.8,1,3.3l-2.5,2.5c-0.4,0.4-0.6,1.2-0.5,1.8l0.7,3.1
	c0.6,2.4-0.7,3.4-2.9,2.1l-3-1.8c-0.5-0.3-1.4-0.3-2,0l-3,1.8c-2.1,1.3-3.4,0.3-2.9-2.1l0.7-3.1c0.1-0.6-0.1-1.4-0.5-1.8l-2.5-2.5
	c-1.5-1.5-1-2.9,1-3.3l3.2-0.5C7.6,8,8.3,7.5,8.5,7l1.8-3.5C11.2,1.6,12.8,1.6,13.7,3.5z"/>
</svg>
