<?xml version="1.0" encoding="utf-8"?>
<!-- Generator: Adobe Illustrator 25.2.0, SVG Export Plug-In . SVG Version: 6.00 Build 0)  -->
<svg version="1.1" id="Layer_1" xmlns="http://www.w3.org/2000/svg" xmlns:xlink="http://www.w3.org/1999/xlink" x="0px" y="0px"
	 viewBox="0 0 24 24" style="enable-background:new 0 0 24 24;" xml:space="preserve">
<g>
	<path class="st0" d="M17.7,22.7c-0.5,0-1.2-0.2-2.1-0.7l-3-1.8c-0.3-0.2-0.9-0.2-1.2,0l-3,1.8c-1.8,1-2.8,0.6-3.3,0.3
		c-0.5-0.3-1.2-1.2-0.7-3.2L5.1,16c0.1-0.3-0.1-0.9-0.3-1.1l-2.5-2.5c-1.2-1.2-1.1-2.3-1-2.8s0.7-1.4,2.4-1.7L7,7.3
		c0.3,0,0.7-0.4,0.9-0.6l1.8-3.5c0.8-1.6,1.8-1.8,2.4-1.8c0,0,0,0,0,0c0.6,0,1.6,0.2,2.4,1.8l1.8,3.5c0,0.1,0.1,0.2,0.3,0.3
		c0.3,0.3,0.4,0.7,0.1,1.1c-0.3,0.3-0.7,0.4-1.1,0.1C15.2,8,15,7.7,14.8,7.4l-1.8-3.5c-0.3-0.6-0.7-1-1.1-1c0,0,0,0,0,0
		c-0.3,0-0.7,0.4-1.1,1L9.2,7.4C8.8,8.1,8,8.7,7.2,8.8L4,9.3c-0.7,0.1-1.1,0.4-1.2,0.7c-0.1,0.3,0.1,0.8,0.6,1.3l2.5,2.5
		c0.6,0.6,0.9,1.7,0.7,2.5l-0.7,3.1c-0.2,1-0.1,1.5,0.1,1.7c0.2,0.2,0.8,0.1,1.6-0.4l3-1.8c0.8-0.5,2-0.5,2.7,0l3,1.8
		c0.9,0.5,1.4,0.5,1.6,0.4c0.2-0.1,0.4-0.7,0.1-1.7l-0.7-3.1c-0.2-0.8,0.1-1.9,0.7-2.5l2.5-2.5c0.5-0.5,0.7-1,0.6-1.3
		c-0.1-0.3-0.6-0.6-1.3-0.7c-0.4-0.1-0.7-0.5-0.6-0.9c0.1-0.4,0.5-0.7,0.9-0.6c1.7,0.3,2.3,1.2,2.4,1.7c0.2,0.5,0.3,1.6-1,2.8
		l-2.5,2.5c-0.2,0.2-0.4,0.8-0.3,1.1l0.7,3.1c0.5,2-0.2,2.9-0.7,3.2C18.6,22.5,18.2,22.7,17.7,22.7z"/>
</g>
</svg>
