<?xml version="1.0" encoding="utf-8"?>
<!-- Generator: Adobe Illustrator 25.2.0, SVG Export Plug-In . SVG Version: 6.00 Build 0)  -->
<svg version="1.1" id="Layer_1" xmlns="http://www.w3.org/2000/svg" xmlns:xlink="http://www.w3.org/1999/xlink" x="0px" y="0px"
	 viewBox="0 0 24 24" style="enable-background:new 0 0 24 24;" xml:space="preserve">
<g>
	<path class="st0" d="M13,13.8h-1c-0.4,0-0.8-0.3-0.8-0.8s0.3-0.8,0.8-0.8h1c0.4,0,0.8,0.3,0.8,0.8S13.4,13.8,13,13.8z"/>
</g>
<g>
	<path class="st0" d="M9.5,13.8H7c-0.4,0-0.8-0.3-0.8-0.8s0.3-0.8,0.8-0.8h2.5c0.4,0,0.8,0.3,0.8,0.8S9.9,13.8,9.5,13.8z"/>
</g>
<g>
	<path class="st0" d="M11,17.8H7c-0.4,0-0.8-0.3-0.8-0.8s0.3-0.8,0.8-0.8h4c0.4,0,0.8,0.3,0.8,0.8S11.4,17.8,11,17.8z"/>
</g>
<g>
	<path class="st0" d="M2,9.8C1.6,9.8,1.2,9.4,1.2,9c0-5.4,2.3-7.8,7.8-7.8h5c0.4,0,0.8,0.3,0.8,0.8S14.4,2.8,14,2.8H9
		C4.4,2.8,2.8,4.4,2.8,9C2.8,9.4,2.4,9.8,2,9.8z"/>
</g>
<g>
	<path class="st0" d="M15,22.8H9c-5.4,0-7.8-2.3-7.8-7.8v-2c0-0.4,0.3-0.8,0.8-0.8s0.8,0.3,0.8,0.8v2c0,4.6,1.6,6.2,6.2,6.2h6
		c4.6,0,6.2-1.6,6.2-6.2v-5c0-0.4,0.3-0.8,0.8-0.8s0.8,0.3,0.8,0.8v5C22.8,20.4,20.4,22.8,15,22.8z"/>
</g>
<g>
	<path class="st0" d="M18,10.8c-3.4,0-4.8-1.3-4.8-4.8V2c0-0.3,0.2-0.6,0.5-0.7c0.3-0.1,0.6-0.1,0.8,0.2l8,8c0.3,0.3,0.3,0.8,0,1.1
		s-0.8,0.3-1.1,0l-6.7-6.7V6c0,2.6,0.7,3.2,3.2,3.2c0.4,0,0.8,0.3,0.8,0.8S18.4,10.8,18,10.8z"/>
</g>
</svg>
