<?xml version="1.0" encoding="utf-8"?>
<!-- Generator: Adobe Illustrator 25.2.0, SVG Export Plug-In . SVG Version: 6.00 Build 0)  -->
<svg version="1.1" id="Layer_1" xmlns="http://www.w3.org/2000/svg" xmlns:xlink="http://www.w3.org/1999/xlink" x="0px" y="0px"
	 viewBox="0 0 24 24" style="enable-background:new 0 0 24 24;" xml:space="preserve">
<path class="st0" d="M16,22.8H8c-3.7,0-5.8-2.1-5.8-5.8V7c0-3.7,2.1-5.8,5.8-5.8h8c3.6,0,5.8,2.1,5.8,5.8v10
	C21.8,20.6,19.6,22.8,16,22.8z M8,2.8C5.1,2.8,3.8,4.1,3.8,7v10c0,2.9,1.4,4.2,4.2,4.2h8c2.9,0,4.2-1.4,4.2-4.2V7
	c0-2.9-1.4-4.2-4.2-4.2H8z"/>
<path class="st0" d="M18.5,9.2h-2c-1.5,0-2.8-1.2-2.8-2.8v-2c0-0.4,0.3-0.8,0.8-0.8s0.8,0.3,0.8,0.8v2c0,0.7,0.6,1.2,1.2,1.2h2
	c0.4,0,0.8,0.3,0.8,0.8S18.9,9.2,18.5,9.2z"/>
<path class="st0" d="M12,13.8H8c-0.4,0-0.8-0.3-0.8-0.8s0.3-0.8,0.8-0.8h4c0.4,0,0.8,0.3,0.8,0.8S12.4,13.8,12,13.8z"/>
<path class="st0" d="M16,17.8H8c-0.4,0-0.8-0.3-0.8-0.8s0.3-0.8,0.8-0.8h8c0.4,0,0.8,0.3,0.8,0.8S16.4,17.8,16,17.8z"/>
</svg>
