<?xml version="1.0" encoding="utf-8"?>
<!-- Generator: Adobe Illustrator 25.2.0, SVG Export Plug-In . SVG Version: 6.00 Build 0)  -->
<svg version="1.1" id="Layer_1" xmlns="http://www.w3.org/2000/svg" xmlns:xlink="http://www.w3.org/1999/xlink" x="0px" y="0px"
	 viewBox="0 0 24 24" style="enable-background:new 0 0 24 24;" xml:space="preserve">
<path class="st0" d="M15.8,2.2c-0.4-0.4-1.1-0.1-1.1,0.4v3.5c0,1.5,1.2,2.7,2.8,2.7c0.9,0,2.3,0,3.4,0c0.6,0,0.9-0.7,0.5-1.1
	C19.9,6.3,17.3,3.7,15.8,2.2z"/>
<path class="st0" d="M20.5,10.2h-2.9c-2.4,0-4.3-1.9-4.3-4.3V3c0-0.5-0.5-1-1-1H8.1C5,2,2.5,4,2.5,7.6v8.9C2.5,20,5,22,8.1,22h7.9
	c3.1,0,5.6-2,5.6-5.6v-5.2C21.5,10.6,21,10.2,20.5,10.2z M11.5,17.8h-4c-0.4,0-0.8-0.3-0.8-0.8s0.3-0.8,0.8-0.8h4
	c0.4,0,0.8,0.3,0.8,0.8S11.9,17.8,11.5,17.8z M13.5,13.8h-6c-0.4,0-0.8-0.3-0.8-0.8s0.3-0.8,0.8-0.8h6c0.4,0,0.8,0.3,0.8,0.8
	S13.9,13.8,13.5,13.8z"/>
</svg>
