<?xml version="1.0" encoding="utf-8"?>
<!-- Generator: Adobe Illustrator 25.2.0, SVG Export Plug-In . SVG Version: 6.00 Build 0)  -->
<svg version="1.1" id="Layer_1" xmlns="http://www.w3.org/2000/svg" xmlns:xlink="http://www.w3.org/1999/xlink" x="0px" y="0px"
	 viewBox="0 0 24 24" style="enable-background:new 0 0 24 24;" xml:space="preserve">
<g>
	<path class="st0" d="M16.7,20.8C16.7,20.8,16.6,20.8,16.7,20.8H5.5c-2.9-0.2-4.3-2.5-4.3-4.5c0-1.8,1.1-3.8,3.3-4.4
		C4,9.5,4.5,7.1,6.2,5.4C8,3.5,11,2.7,13.5,3.5c2.3,0.7,4,2.6,4.6,5.3c2,0.5,3.7,2,4.3,4.2c0.7,2.3,0.1,4.7-1.7,6.2
		C19.7,20.3,18.2,20.8,16.7,20.8z M5.5,13.3c-1.9,0.1-2.8,1.6-2.8,3c0,1.4,0.9,2.9,2.8,3l11,0c1.2,0,2.3-0.4,3.1-1.2
		c1.6-1.4,1.7-3.3,1.2-4.7c-0.4-1.4-1.6-2.9-3.6-3.2c-0.3,0-0.6-0.3-0.6-0.6c-0.4-2.4-1.7-4.1-3.7-4.7c-2-0.6-4.4,0-5.8,1.5
		c-1.3,1.4-1.7,3.3-1.1,5.4c0.5,0.1,1,0.2,1.5,0.4c0.4,0.2,0.5,0.6,0.3,1c-0.2,0.4-0.6,0.5-1,0.3C6.5,13.5,6,13.3,5.5,13.3z"/>
</g>
<g>
	<path class="st0" d="M15.9,10.7c-0.3,0-0.5-0.2-0.7-0.4c-0.2-0.4,0-0.8,0.3-1c0.6-0.3,1.3-0.5,2-0.5c0,0,0,0,0,0
		c0.4,0,0.7,0.3,0.8,0.7c0,0.4-0.3,0.8-0.7,0.8c-0.5,0-0.9,0.1-1.3,0.3C16.1,10.6,16,10.7,15.9,10.7z"/>
</g>
</svg>
