<?xml version="1.0" encoding="utf-8"?>
<!-- Generator: Adobe Illustrator 25.2.0, SVG Export Plug-In . SVG Version: 6.00 Build 0)  -->
<svg version="1.1" id="Layer_1" xmlns="http://www.w3.org/2000/svg" xmlns:xlink="http://www.w3.org/1999/xlink" x="0px" y="0px"
	 viewBox="0 0 24 24" style="enable-background:new 0 0 24 24;" xml:space="preserve">
<g>
	<path class="st0" d="M15.9,10.7c-0.3,0-0.5-0.2-0.7-0.4c-0.2-0.4,0-0.8,0.3-1c0.6-0.3,1.3-0.5,2-0.5c0.4,0,0.8,0.3,0.8,0.7
		c0,0.4-0.3,0.8-0.7,0.8c-0.5,0-0.9,0.1-1.3,0.3C16.1,10.6,16,10.7,15.9,10.7z"/>
</g>
<g>
	<path class="st0" d="M5.6,13.3c-0.3,0-0.6-0.2-0.7-0.5c-0.9-2.6-0.6-5,0.8-6.9c1.5-1.9,3.9-3,6.4-2.7c0.4,0,0.7,0.4,0.7,0.8
		c0,0.4-0.4,0.7-0.8,0.7C10,4.5,8,5.3,6.9,6.8c-0.8,1-1.5,2.8-0.6,5.5c0.1,0.4-0.1,0.8-0.5,1C5.8,13.3,5.7,13.3,5.6,13.3z"/>
</g>
<g>
	<path class="st0" d="M16.7,20.7C16.7,20.7,16.6,20.7,16.7,20.7H5.5c-2.9-0.2-4.3-2.5-4.3-4.5s1.3-4.3,4.2-4.5c0,0,0,0,0,0
		c0.8,0,1.5,0.2,2.1,0.5c0.4,0.2,0.5,0.6,0.3,1c-0.2,0.4-0.6,0.5-1,0.3c-0.4-0.2-0.9-0.3-1.4-0.3c-1.9,0.1-2.8,1.6-2.8,3
		s0.9,2.8,2.8,3l11,0c0,0,0,0,0,0c1.2,0,2.3-0.4,3.1-1.2c1.6-1.4,1.7-3.3,1.2-4.7c-0.4-1.4-1.6-2.9-3.6-3.2c-0.3,0-0.6-0.3-0.6-0.6
		c-0.2-1.2-0.7-2.3-1.3-3.1c-0.3-0.3-0.2-0.8,0.1-1.1c0.3-0.3,0.8-0.2,1.1,0.1c0.7,0.9,1.3,2,1.6,3.3c2,0.5,3.7,2,4.3,4.2
		c0.7,2.3,0.1,4.7-1.7,6.2C19.7,20.2,18.2,20.7,16.7,20.7z"/>
</g>
<g>
	<path class="st0" d="M15.8,10.6c-0.3,0-0.5-0.2-0.7-0.4c-0.2-0.4,0-0.8,0.3-1c0.6-0.3,1.3-0.5,2-0.5c0.4,0,0.8,0.3,0.8,0.7
		c0,0.4-0.3,0.8-0.7,0.8c-0.5,0-0.9,0.1-1.3,0.3C16.1,10.6,16,10.6,15.8,10.6z"/>
</g>
</svg>
