<?xml version="1.0" encoding="utf-8"?>
<!-- Generator: Adobe Illustrator 25.2.0, SVG Export Plug-In . SVG Version: 6.00 Build 0)  -->
<svg version="1.1" id="Layer_1" xmlns="http://www.w3.org/2000/svg" xmlns:xlink="http://www.w3.org/1999/xlink" x="0px" y="0px"
	 viewBox="0 0 24 24" style="enable-background:new 0 0 24 24;" xml:space="preserve">
<path class="st0" d="M21.7,12.9c-0.3-0.9-0.7-1.6-1.3-2.2c-0.7-0.8-1.7-1.4-2.8-1.7c-0.6-2.5-2.1-4.3-4.3-5C11,3.3,8.3,4,6.5,5.9
	C5,7.4,4.5,9.6,5.1,12c-2,0.5-3,2.2-3.1,3.8c0,0.1,0,0.2,0,0.3c0,1.9,1.2,4,4,4.2h10.4c1.4,0,2.8-0.5,3.8-1.5
	C21.8,17.3,22.4,15.1,21.7,12.9z"/>
</svg>
