<?xml version="1.0" encoding="utf-8"?>
<!-- Generator: Adobe Illustrator 25.2.0, SVG Export Plug-In . SVG Version: 6.00 Build 0)  -->
<svg version="1.1" id="Layer_1" xmlns="http://www.w3.org/2000/svg" xmlns:xlink="http://www.w3.org/1999/xlink" x="0px" y="0px"
	 viewBox="0 0 24 24" style="enable-background:new 0 0 24 24;" xml:space="preserve">
<g>
	<path class="st0" d="M15,22.8H9c-5.4,0-7.8-2.3-7.8-7.8v-2c0-0.4,0.3-0.8,0.8-0.8s0.8,0.3,0.8,0.8v2c0,4.6,1.6,6.2,6.2,6.2h6
		c4.6,0,6.2-1.6,6.2-6.2V9c0-4.6-1.6-6.2-6.2-6.2H9C4.4,2.8,2.8,4.4,2.8,9c0,0.4-0.3,0.8-0.8,0.8S1.2,9.4,1.2,9
		c0-5.4,2.3-7.8,7.8-7.8h6c5.4,0,7.8,2.3,7.8,7.8v6C22.8,20.4,20.4,22.8,15,22.8z"/>
</g>
<g>
	<path class="st0" d="M15,11.1c-0.2,0-0.4-0.1-0.5-0.2c-0.3-0.3-0.3-0.8,0-1.1l1.1-1.1c0.3-0.3,0.8-0.3,1.1,0c0.3,0.3,0.3,0.8,0,1.1
		l-1.1,1.1C15.4,11.1,15.2,11.1,15,11.1z"/>
</g>
<g>
	<path class="st0" d="M10.6,15.5c-0.2,0-0.4-0.1-0.5-0.2l-2.7-2.8c-0.3-0.3-0.3-0.8,0-1.1c0.3-0.3,0.8-0.3,1.1,0l2.2,2.2l2-2
		c0.3-0.3,0.8-0.3,1.1,0c0.3,0.3,0.3,0.8,0,1.1l-2.5,2.5C11,15.4,10.8,15.5,10.6,15.5z"/>
</g>
</svg>
