<?xml version="1.0" encoding="utf-8"?>
<!-- Generator: Adobe Illustrator 25.2.0, SVG Export Plug-In . SVG Version: 6.00 Build 0)  -->
<svg version="1.1" id="Layer_1" xmlns="http://www.w3.org/2000/svg" xmlns:xlink="http://www.w3.org/1999/xlink" x="0px" y="0px"
	 viewBox="0 0 24 24" style="enable-background:new 0 0 24 24;" xml:space="preserve">
<path class="st0" d="M16.2,2H7.8C4.2,2,2,4.2,2,7.8v8.4C2,19.8,4.2,22,7.8,22h8.4c3.6,0,5.8-2.2,5.8-5.8V7.8C22,4.2,19.8,2,16.2,2z
	 M16.8,9.7l-5.7,5.7c-0.1,0.1-0.3,0.2-0.5,0.2s-0.4-0.1-0.5-0.2l-2.8-2.8c-0.3-0.3-0.3-0.8,0-1.1c0.3-0.3,0.8-0.3,1.1,0l2.3,2.3
	l5.1-5.1c0.3-0.3,0.8-0.3,1.1,0C17.1,8.9,17.1,9.4,16.8,9.7z"/>
</svg>
