<?xml version="1.0" encoding="utf-8"?>
<!-- Generator: Adobe Illustrator 25.2.0, SVG Export Plug-In . SVG Version: 6.00 Build 0)  -->
<svg version="1.1" id="Layer_1" xmlns="http://www.w3.org/2000/svg" xmlns:xlink="http://www.w3.org/1999/xlink" x="0px" y="0px"
	 viewBox="0 0 24 24" style="enable-background:new 0 0 24 24;" xml:space="preserve">

<path class="st0" d="M15,22.8H9c-5.4,0-7.8-2.3-7.8-7.8V9c0-5.4,2.3-7.8,7.8-7.8h6c5.4,0,7.8,2.3,7.8,7.8v6
	C22.8,20.4,20.4,22.8,15,22.8z M9,2.8C4.4,2.8,2.8,4.4,2.8,9v6c0,4.6,1.6,6.2,6.2,6.2h6c4.6,0,6.2-1.6,6.2-6.2V9
	c0-4.6-1.6-6.2-6.2-6.2H9z"/>
<path class="st0" d="M17.5,17.8h-1.9c-0.4,0-0.8-0.3-0.8-0.8c0-0.4,0.3-0.8,0.8-0.8h1.9c0.4,0,0.8,0.3,0.8,0.8
	C18.3,17.5,17.9,17.8,17.5,17.8z"/>
<path class="st0" d="M13,17.8H6.5c-0.4,0-0.8-0.3-0.8-0.8c0-0.4,0.3-0.8,0.8-0.8H13c0.4,0,0.8,0.3,0.8,0.8
	C13.7,17.5,13.4,17.8,13,17.8z"/>
<path class="st0" d="M17.5,14.1H12c-0.4,0-0.8-0.3-0.8-0.8c0-0.4,0.3-0.8,0.8-0.8h5.5c0.4,0,0.8,0.3,0.8,0.8
	C18.3,13.7,17.9,14.1,17.5,14.1z"/>
<path class="st0" d="M9.3,14.1H6.5c-0.4,0-0.8-0.3-0.8-0.8c0-0.4,0.3-0.8,0.8-0.8h2.8c0.4,0,0.8,0.3,0.8,0.8
	C10,13.7,9.7,14.1,9.3,14.1z"/>
</svg>
