<?xml version="1.0" encoding="utf-8"?>
<!-- Generator: Adobe Illustrator 25.2.0, SVG Export Plug-In . SVG Version: 6.00 Build 0)  -->
<svg version="1.1" id="Layer_1" xmlns="http://www.w3.org/2000/svg" xmlns:xlink="http://www.w3.org/1999/xlink" x="0px" y="0px"
	 viewBox="0 0 24 24" style="enable-background:new 0 0 24 24;" xml:space="preserve">
<path class="st0" d="M16.2,2H7.8C4.2,2,2,4.2,2,7.8v8.4C2,19.8,4.2,22,7.8,22h8.4c3.6,0,5.8-2.2,5.8-5.8V7.8C22,4.2,19.8,2,16.2,2z
	 M6.5,12.6h2.8c0.4,0,0.8,0.3,0.8,0.8s-0.3,0.8-0.8,0.8H6.5c-0.4,0-0.8-0.3-0.8-0.8S6.1,12.6,6.5,12.6z M13,17.8H6.5
	c-0.4,0-0.8-0.3-0.8-0.8s0.3-0.8,0.8-0.8H13c0.4,0,0.8,0.3,0.8,0.8S13.4,17.8,13,17.8z M17.5,17.8h-1.9c-0.4,0-0.8-0.3-0.8-0.8
	s0.3-0.8,0.8-0.8h1.9c0.4,0,0.8,0.3,0.8,0.8S17.9,17.8,17.5,17.8z M17.5,14.1H12c-0.4,0-0.8-0.3-0.8-0.8s0.3-0.8,0.8-0.8h5.5
	c0.4,0,0.8,0.3,0.8,0.8S17.9,14.1,17.5,14.1z"/>
</svg>
