<?xml version="1.0" encoding="utf-8"?>
<!-- Generator: Adobe Illustrator 25.2.0, SVG Export Plug-In . SVG Version: 6.00 Build 0)  -->
<svg version="1.1" id="Layer_1" xmlns="http://www.w3.org/2000/svg" xmlns:xlink="http://www.w3.org/1999/xlink" x="0px" y="0px"
	 viewBox="0 0 24 24" style="enable-background:new 0 0 24 24;" xml:space="preserve">
<path class="st0" d="M16,12.9v4.2c0,3.5-1.4,4.9-4.9,4.9H6.9C3.4,22,2,20.6,2,17.1v-4.2C2,9.4,3.4,8,6.9,8h4.2
	C14.6,8,16,9.4,16,12.9z"/>
<path class="st0" d="M17.1,2h-4.2C9.8,2,8.4,3.1,8.1,5.7c-0.1,0.6,0.4,1,1,1h2.1c4.2,0,6.1,1.9,6.1,6.1V15c0,0.6,0.5,1,1,1
	c2.6-0.3,3.7-1.7,3.7-4.8V6.9C22,3.4,20.6,2,17.1,2z"/>
</svg>
