<?xml version="1.0" encoding="utf-8"?>
<!-- Generator: Adobe Illustrator 25.2.0, SVG Export Plug-In . SVG Version: 6.00 Build 0)  -->
<svg version="1.1" id="Layer_1" xmlns="http://www.w3.org/2000/svg" xmlns:xlink="http://www.w3.org/1999/xlink" x="0px" y="0px"
	 viewBox="0 0 24 24" style="enable-background:new 0 0 24 24;" xml:space="preserve">
<g>
	<path class="st0" d="M11.1,22.8H6.9c-3.9,0-5.6-1.7-5.6-5.7c0-0.4,0.3-0.8,0.8-0.8s0.8,0.3,0.8,0.8c0,3.1,1,4.2,4.1,4.2h4.2
		c3.1,0,4.1-1,4.1-4.2v-4.2c0-3.1-1-4.1-4.1-4.1H6.9c-3.1,0-4.1,1-4.1,4.1c0,0.4-0.3,0.7-0.8,0.7s-0.8-0.3-0.8-0.7
		C1.2,9,3,7.2,6.9,7.2h4.2c3.9,0,5.6,1.7,5.6,5.6v4.2C16.8,21,15,22.8,11.1,22.8z"/>
</g>
<g>
	<path class="st0" d="M17.1,16.8H16c-0.4,0-0.8-0.3-0.8-0.8v-3.1c0-3.1-1-4.1-4.1-4.1H8C7.6,8.8,7.2,8.4,7.2,8V6.9
		C7.2,3,9,1.2,12.9,1.2h4.2c3.9,0,5.7,1.7,5.7,5.6c0,0.4-0.3,0.8-0.8,0.8s-0.8-0.3-0.8-0.8c0-3.1-1-4.1-4.2-4.1h-4.2
		c-3.1,0-4.1,1-4.1,4.1v0.4h2.4c3.9,0,5.6,1.7,5.6,5.6v2.4h0.3c3.1,0,4.2-1,4.2-4.1c0-0.4,0.3-0.8,0.8-0.8s0.8,0.3,0.8,0.8
		C22.8,15,21,16.8,17.1,16.8z"/>
</g>
</svg>
