<?xml version="1.0" encoding="utf-8"?>
<!-- Generator: Adobe Illustrator 25.2.0, SVG Export Plug-In . SVG Version: 6.00 Build 0)  -->
<svg version="1.1" id="Layer_1" xmlns="http://www.w3.org/2000/svg" xmlns:xlink="http://www.w3.org/1999/xlink" x="0px" y="0px"
	 viewBox="0 0 24 24" style="enable-background:new 0 0 24 24;" xml:space="preserve">
<path class="st0" d="M7.8,18.5c-3.6,0-6.5-2.9-6.5-6.5s2.9-6.5,6.5-6.5c0.4,0,0.8,0.3,0.8,0.8S8.2,7,7.8,7c-2.8,0-5,2.2-5,5
	s2.2,5,5,5s5-2.2,5-5c0-0.4,0.3-0.8,0.8-0.8s0.8,0.3,0.8,0.8C14.2,15.6,11.3,18.5,7.8,18.5z"/>
<path class="st0" d="M16,18.8c-0.4,0-0.8-0.3-0.8-0.8s0.3-0.8,0.8-0.8c2.9,0,5.2-2.4,5.2-5.2S18.9,6.8,16,6.8s-5.2,2.4-5.2,5.2
	c0,0.4-0.3,0.8-0.8,0.8S9.2,12.4,9.2,12c0-3.7,3-6.8,6.8-6.8s6.8,3,6.8,6.8S19.7,18.8,16,18.8z"/>
</svg>
