<?xml version="1.0" encoding="utf-8"?>
<!-- Generator: Adobe Illustrator 25.2.0, SVG Export Plug-In . SVG Version: 6.00 Build 0)  -->
<svg version="1.1" id="Layer_1" xmlns="http://www.w3.org/2000/svg" xmlns:xlink="http://www.w3.org/1999/xlink" x="0px" y="0px"
	 viewBox="0 0 24 24" style="enable-background:new 0 0 24 24;" xml:space="preserve">
<path class="st0" d="M12.5,14.8H10c-0.4,0-0.8-0.3-0.8-0.8s0.3-0.8,0.8-0.8h2.5c2.6,0,4.8-2.1,4.8-4.8s-2.1-4.8-4.8-4.8h-5
	c-2.6,0-4.8,2.1-4.8,4.8c0,1.1,0.4,2.2,1.1,3c0.3,0.3,0.2,0.8-0.1,1.1c-0.3,0.3-0.8,0.2-1.1-0.1c-0.9-1.1-1.4-2.5-1.4-4
	c0-3.4,2.8-6.2,6.2-6.2h5c3.4,0,6.2,2.8,6.2,6.2S15.9,14.8,12.5,14.8z"/>
<path class="st0" d="M16.5,21.8h-5c-3.4,0-6.2-2.8-6.2-6.2s2.8-6.2,6.2-6.2H14c0.4,0,0.8,0.3,0.8,0.8s-0.3,0.8-0.8,0.8h-2.5
	c-2.6,0-4.8,2.1-4.8,4.8s2.1,4.8,4.8,4.8h5c2.6,0,4.8-2.1,4.8-4.8c0-1.1-0.4-2.2-1.1-3c-0.3-0.3-0.2-0.8,0.1-1.1
	c0.3-0.3,0.8-0.2,1.1,0.1c0.9,1.1,1.4,2.5,1.4,4C22.8,19,20,21.8,16.5,21.8z"/>
</svg>
