<?xml version="1.0" encoding="utf-8"?>
<!-- Generator: Adobe Illustrator 25.2.0, SVG Export Plug-In . SVG Version: 6.00 Build 0)  -->
<svg version="1.1" id="Layer_1" xmlns="http://www.w3.org/2000/svg" xmlns:xlink="http://www.w3.org/1999/xlink" x="0px" y="0px"
	 viewBox="0 0 24 24" style="enable-background:new 0 0 24 24;" xml:space="preserve">
<path class="st0" d="M21.5,15.9c-0.2-0.3-0.6-0.7-1.7-0.5c-0.6,0.1-1.2,0.2-1.9,0.1c-2.3-0.1-4.4-1.2-5.9-2.8
	c-1.3-1.4-2.1-3.3-2.1-5.4c0-1.1,0.2-2.2,0.7-3.3c0.4-1,0.1-1.5-0.1-1.8c-0.2-0.2-0.8-0.6-1.8-0.1C4.6,3.9,2,8,2.3,12.4
	c0.3,4.1,3.2,7.7,7,9c0.9,0.3,1.9,0.5,2.9,0.6c0.2,0,0.3,0,0.5,0c3.3,0,6.5-1.6,8.5-4.3C21.9,16.8,21.7,16.2,21.5,15.9z"/>
</svg>
