<?xml version="1.0" encoding="utf-8"?>
<!-- Generator: Adobe Illustrator 25.2.0, SVG Export Plug-In . SVG Version: 6.00 Build 0)  -->
<svg version="1.1" id="Layer_1" xmlns="http://www.w3.org/2000/svg" xmlns:xlink="http://www.w3.org/1999/xlink" x="0px" y="0px"
	 viewBox="0 0 24 24" style="enable-background:new 0 0 24 24;" xml:space="preserve">
<path class="st0" d="M12.5,22.8c-0.2,0-0.3,0-0.5,0C6.4,22.5,1.7,18,1.3,12.5c-0.3-4.7,2.4-9.1,6.8-11C9.3,1,10,1.4,10.3,1.7
	c0.3,0.3,0.7,0.9,0.2,2.1C10,4.9,9.7,6,9.7,7.1c0,4.4,3.7,8.2,8.2,8.4c0.6,0,1.3,0,1.9-0.1c1.3-0.2,1.9,0.3,2.1,0.6
	c0.2,0.3,0.4,1.1-0.4,2.2C19.4,21.1,16.1,22.8,12.5,22.8z M2.8,12.4c0.3,4.8,4.4,8.7,9.2,8.9c3.3,0.2,6.4-1.3,8.3-4
	c0.1-0.2,0.2-0.4,0.2-0.4c-0.1,0-0.2,0-0.5,0c-0.7,0.1-1.5,0.2-2.2,0.1c-5.3-0.2-9.6-4.6-9.6-9.9c0-1.4,0.3-2.7,0.8-4
	C9.1,3,9.2,2.8,9.2,2.8c-0.1,0-0.2,0-0.5,0.1C4.9,4.5,2.5,8.3,2.8,12.4z"/>
</svg>
