<?xml version="1.0" encoding="utf-8"?>
<!-- Generator: Adobe Illustrator 25.2.0, SVG Export Plug-In . SVG Version: 6.00 Build 0)  -->
<svg version="1.1" id="Layer_1" xmlns="http://www.w3.org/2000/svg" xmlns:xlink="http://www.w3.org/1999/xlink" x="0px" y="0px"
	 viewBox="0 0 24 24" style="enable-background:new 0 0 24 24;" xml:space="preserve">
<g>
	<path class="st0" d="M15,22.8H9c-5.4,0-7.8-2.3-7.8-7.8V9c0-5.4,2.3-7.8,7.8-7.8h6c5.4,0,7.8,2.3,7.8,7.8v6
		C22.8,20.4,20.4,22.8,15,22.8z M9,2.8C4.4,2.8,2.8,4.4,2.8,9v6c0,4.6,1.6,6.2,6.2,6.2h6c4.6,0,6.2-1.6,6.2-6.2V9
		c0-4.6-1.6-6.2-6.2-6.2H9z"/>
</g>
<g>
	<path class="st0" d="M13.9,16.1H9c-0.4,0-0.8-0.3-0.8-0.8s0.3-0.8,0.8-0.8h4.9c1.3,0,2.3-1,2.3-2.3s-1-2.3-2.3-2.3H7.1
		c-0.4,0-0.8-0.3-0.8-0.8s0.3-0.8,0.8-0.8h6.8c2.1,0,3.8,1.7,3.8,3.8S16,16.1,13.9,16.1z"/>
</g>
<g>
	<path class="st0" d="M8.6,11.5c-0.2,0-0.4-0.1-0.5-0.2L6.5,9.7C6.2,9.4,6.2,9,6.5,8.7L8,7.1c0.3-0.3,0.8-0.3,1.1,0s0.3,0.8,0,1.1
		l-1,1l1,1c0.3,0.3,0.3,0.8,0,1.1C9,11.4,8.8,11.5,8.6,11.5z"/>
</g>
</svg>
