<?xml version="1.0" encoding="utf-8"?>
<!-- Generator: Adobe Illustrator 25.2.0, SVG Export Plug-In . SVG Version: 6.00 Build 0)  -->
<svg version="1.1" id="Layer_1" xmlns="http://www.w3.org/2000/svg" xmlns:xlink="http://www.w3.org/1999/xlink" x="0px" y="0px"
	 viewBox="0 0 24 24" style="enable-background:new 0 0 24 24;" xml:space="preserve">
<path class="st0" d="M16.2,2H7.8C4.2,2,2,4.2,2,7.8v8.4C2,19.8,4.2,22,7.8,22h8.4c3.6,0,5.8-2.2,5.8-5.8V7.8C22,4.2,19.8,2,16.2,2z
	 M13.9,16.1H9c-0.4,0-0.8-0.3-0.8-0.7s0.3-0.8,0.8-0.8h4.9c1.3,0,2.3-1,2.3-2.3s-1-2.3-2.3-2.3H8.9l0.3,0.3c0.3,0.3,0.3,0.8,0,1.1
	c-0.2,0.1-0.3,0.2-0.5,0.2c-0.2,0-0.4-0.1-0.5-0.2L6.5,9.7c-0.3-0.3-0.3-0.8,0-1.1L8,7.1c0.3-0.3,0.8-0.3,1.1,0s0.3,0.8,0,1.1
	L8.8,8.5h5.1c2.1,0,3.8,1.7,3.8,3.8S16,16.1,13.9,16.1z"/>
</svg>
