<?xml version="1.0" encoding="utf-8"?>
<!-- Generator: Adobe Illustrator 25.2.0, SVG Export Plug-In . SVG Version: 6.00 Build 0)  -->
<svg version="1.1" id="Layer_1" xmlns="http://www.w3.org/2000/svg" xmlns:xlink="http://www.w3.org/1999/xlink" x="0px" y="0px"
	 viewBox="0 0 24 24" style="enable-background:new 0 0 24 24;" xml:space="preserve">
<path class="st0" d="M18,7.9C18,7.9,18,7.9,18,7.9h-0.1c-1.9-0.1-3.3-1.5-3.3-3.3c0-1.8,1.5-3.3,3.3-3.3c1.8,0,3.3,1.5,3.3,3.3
	C21.2,6.4,19.8,7.9,18,7.9C18,7.9,18,7.9,18,7.9z M17.9,2.8c-1,0-1.8,0.8-1.8,1.8c0,1,0.8,1.8,1.8,1.8c0,0,0.1,0,0.2,0
	c1,0,1.7-0.8,1.7-1.8C19.7,3.6,18.9,2.8,17.9,2.8z"/>
<path class="st0" d="M18,15.3c-0.4,0-0.8,0-1.2-0.1c-0.4-0.1-0.7-0.5-0.6-0.9c0.1-0.4,0.5-0.7,0.9-0.6c1.2,0.2,2.5,0,3.4-0.6
	c0.5-0.3,0.7-0.7,0.7-1.1c0-0.4-0.3-0.8-0.7-1.1c-0.9-0.6-2.2-0.8-3.4-0.6c-0.4,0.1-0.8-0.2-0.9-0.6c-0.1-0.4,0.2-0.8,0.6-0.9
	c1.6-0.3,3.3,0,4.5,0.8c0.9,0.6,1.4,1.4,1.4,2.3c0,0.9-0.5,1.7-1.4,2.3C20.4,15,19.2,15.3,18,15.3z"/>
<path class="st0" d="M6,7.9C6,7.9,6,7.9,6,7.9C4.2,7.8,2.7,6.4,2.7,4.6c0-1.8,1.5-3.3,3.3-3.3s3.3,1.5,3.3,3.3
	c0,1.8-1.4,3.3-3.2,3.3L6,7.2V7.9C6,7.9,6,7.9,6,7.9z M6.1,6.4c0.1,0,0.1,0,0.2,0c0.9,0,1.7-0.8,1.7-1.8c0-1-0.8-1.8-1.8-1.8
	S4.3,3.6,4.3,4.6C4.3,5.6,5,6.4,6.1,6.4C6,6.4,6,6.4,6.1,6.4z"/>
<path class="st0" d="M6,15.3c-1.2,0-2.4-0.3-3.3-0.9c-0.9-0.6-1.4-1.4-1.4-2.3c0-0.9,0.5-1.7,1.4-2.3c1.2-0.8,2.9-1.1,4.5-0.8
	c0.4,0.1,0.7,0.5,0.6,0.9c-0.1,0.4-0.5,0.7-0.9,0.6c-1.2-0.2-2.6,0-3.4,0.6C3,11.2,2.8,11.6,2.8,12c0,0.4,0.3,0.8,0.7,1.1
	c0.9,0.6,2.2,0.8,3.4,0.6c0.4-0.1,0.8,0.2,0.9,0.6c0.1,0.4-0.2,0.8-0.6,0.9C6.7,15.3,6.3,15.3,6,15.3z"/>
<path class="st0" d="M12,15.4C12,15.4,12,15.4,12,15.4h-0.1c-1.9-0.1-3.3-1.5-3.3-3.3c0-1.8,1.5-3.3,3.3-3.3s3.3,1.5,3.3,3.3
	C15.2,13.9,13.8,15.3,12,15.4C12,15.4,12,15.4,12,15.4z M11.9,10.2c-1,0-1.8,0.8-1.8,1.8c0,1,0.8,1.8,1.8,1.8c0,0,0.1,0,0.2,0
	c1-0.1,1.7-0.9,1.7-1.8C13.7,11.1,12.9,10.2,11.9,10.2z"/>
<path class="st0" d="M12,22.8c-1.2,0-2.4-0.3-3.3-0.9c-0.9-0.6-1.4-1.4-1.4-2.3c0-0.9,0.5-1.8,1.4-2.3c1.9-1.2,4.8-1.2,6.7,0
	c0.9,0.6,1.4,1.4,1.4,2.3c0,0.9-0.5,1.8-1.4,2.3C14.4,22.4,13.2,22.8,12,22.8z M9.5,18.4c-0.5,0.3-0.7,0.7-0.7,1.1s0.3,0.8,0.7,1.1
	c1.4,0.9,3.6,0.9,5,0c0.5-0.3,0.7-0.7,0.7-1.1s-0.3-0.8-0.7-1.1C13.1,17.5,10.9,17.5,9.5,18.4z"/>
</svg>
