<?xml version="1.0" encoding="utf-8"?>
<!-- Generator: Adobe Illustrator 25.2.0, SVG Export Plug-In . SVG Version: 6.00 Build 0)  -->
<svg version="1.1" id="Layer_1" xmlns="http://www.w3.org/2000/svg" xmlns:xlink="http://www.w3.org/1999/xlink" x="0px" y="0px"
	 viewBox="0 0 24 24" style="enable-background:new 0 0 24 24;" xml:space="preserve">
<g>
	<path class="st0" d="M18,7.9C18,7.9,17.9,7.9,18,7.9c-0.1,0-0.2,0-0.2,0c-1.8-0.1-3.2-1.5-3.2-3.3c0-1.8,1.5-3.3,3.3-3.3
		s3.3,1.5,3.3,3.3C21.2,6.4,19.8,7.8,18,7.9C18,7.9,18,7.9,18,7.9z M17.9,7.9L17.9,7.9L17.9,7.9z M17.9,7.9L17.9,7.9L17.9,7.9z
		 M17.9,2.8c-1,0-1.8,0.8-1.8,1.8c0,1,0.7,1.8,1.7,1.8c0.1,0,0.2,0,0.2,0c1-0.1,1.7-0.9,1.7-1.8C19.7,3.6,18.9,2.8,17.9,2.8z"/>
</g>
<g>
	<path class="st0" d="M18,15.3c-0.4,0-0.8,0-1.2-0.1c-0.4-0.1-0.7-0.5-0.6-0.9c0.1-0.4,0.5-0.7,0.9-0.6c1.2,0.2,2.5,0,3.4-0.6
		c0.5-0.3,0.7-0.7,0.7-1.1s-0.3-0.8-0.7-1.1c-0.9-0.6-2.2-0.8-3.4-0.6c-0.4,0.1-0.8-0.2-0.9-0.6c-0.1-0.4,0.2-0.8,0.6-0.9
		c1.6-0.3,3.3,0,4.5,0.8c0.9,0.6,1.4,1.4,1.4,2.3s-0.5,1.7-1.4,2.3C20.4,14.9,19.2,15.3,18,15.3z"/>
</g>
<g>
	<path class="st0" d="M6,7.9C6,7.9,6,7.9,6,7.9C4.2,7.8,2.7,6.4,2.7,4.6c0-1.8,1.5-3.3,3.3-3.3s3.3,1.5,3.3,3.3
		c0,1.8-1.4,3.3-3.2,3.3C6.1,7.9,6.1,7.9,6,7.9C6,7.9,6,7.9,6,7.9z M6.1,6.4c0,0,0.1,0,0.1,0c1-0.1,1.7-0.9,1.7-1.8
		c0-1-0.8-1.8-1.8-1.8S4.2,3.6,4.2,4.6c0,1,0.8,1.8,1.7,1.8C6,6.4,6,6.4,6.1,6.4z"/>
</g>
<g>
	<path class="st0" d="M6,15.3c-1.2,0-2.4-0.3-3.3-0.9c-0.9-0.6-1.4-1.4-1.4-2.3s0.5-1.7,1.4-2.3c1.2-0.8,2.9-1.1,4.5-0.8
		c0.4,0.1,0.7,0.5,0.6,0.9c-0.1,0.4-0.5,0.7-0.9,0.6c-1.2-0.2-2.5,0-3.4,0.6C3,11.2,2.8,11.6,2.8,12s0.3,0.8,0.7,1.1
		c0.9,0.6,2.2,0.8,3.4,0.6c0.4-0.1,0.8,0.2,0.9,0.6c0.1,0.4-0.2,0.8-0.6,0.9C6.7,15.2,6.4,15.3,6,15.3z"/>
</g>
<g>
	<path class="st0" d="M11.8,15.4C11.8,15.4,11.8,15.4,11.8,15.4C10,15.3,8.6,13.9,8.6,12c0-1.8,1.5-3.3,3.3-3.3
		c1.8,0,3.3,1.5,3.3,3.3c0,1.8-1.4,3.3-3.2,3.3C12,15.4,11.9,15.4,11.8,15.4C11.9,15.4,11.8,15.4,11.8,15.4z M11.9,15.4
		C11.9,15.4,11.9,15.4,11.9,15.4C11.9,15.4,11.9,15.4,11.9,15.4z M11.9,15.4C11.9,15.4,11.9,15.4,11.9,15.4
		C11.9,15.4,11.9,15.4,11.9,15.4z M11.9,13.9c0,0,0.1,0,0.1,0c1-0.1,1.7-0.8,1.7-1.8c0-1-0.8-1.8-1.8-1.8S10.1,11,10.1,12
		c0,1,0.7,1.8,1.7,1.8C11.8,13.9,11.9,13.9,11.9,13.9z"/>
</g>
<g>
	<path class="st0" d="M12,22.8c-1.2,0-2.4-0.3-3.3-0.9c-0.9-0.6-1.4-1.4-1.4-2.3s0.5-1.7,1.4-2.3c1.8-1.2,4.8-1.2,6.7,0
		c0.3,0.2,0.4,0.7,0.2,1c-0.2,0.3-0.7,0.4-1,0.2c-1.3-0.9-3.6-0.9-5,0c-0.5,0.3-0.7,0.7-0.7,1.1c0,0.4,0.3,0.8,0.7,1.1
		c1.4,0.9,3.6,0.9,5,0c0.3-0.2,0.8-0.1,1,0.2c0.2,0.3,0.1,0.8-0.2,1C14.4,22.4,13.2,22.8,12,22.8z"/>
</g>
</svg>
