<?xml version="1.0" encoding="utf-8"?>
<!-- Generator: Adobe Illustrator 25.2.0, SVG Export Plug-In . SVG Version: 6.00 Build 0)  -->
<svg version="1.1" id="Layer_1" xmlns="http://www.w3.org/2000/svg" xmlns:xlink="http://www.w3.org/1999/xlink" x="0px" y="0px"
	 viewBox="0 0 24 24" style="enable-background:new 0 0 24 24;" xml:space="preserve">
<path class="st0" d="M12,22.8c-4.9,0-8.9-4-8.9-8.9c0-5.7,5.4-10.5,7.8-12.3c0.6-0.5,1.5-0.5,2.1,0c2.4,1.8,7.8,6.7,7.8,12.3
	C20.8,18.8,16.9,22.8,12,22.8z M12,2.8c-0.1,0-0.1,0-0.2,0.1c-1.7,1.3-7.2,5.9-7.2,11.1c0,4.1,3.3,7.4,7.4,7.4c4,0,7.4-3.3,7.4-7.3
	c0-5.1-5.5-9.8-7.2-11.1C12.1,2.8,12,2.8,12,2.8z"/>
</svg>
