<?xml version="1.0" encoding="utf-8"?>
<!-- Generator: Adobe Illustrator 25.2.0, SVG Export Plug-In . SVG Version: 6.00 Build 0)  -->
<svg version="1.1" id="Layer_1" xmlns="http://www.w3.org/2000/svg" xmlns:xlink="http://www.w3.org/1999/xlink" x="0px" y="0px"
	 viewBox="0 0 24 24" style="enable-background:new 0 0 24 24;" xml:space="preserve">
<g>
	<path class="st0" d="M12,22.8c-4.9,0-8.9-4-8.9-8.8c0-0.4,0.3-0.8,0.8-0.8s0.8,0.3,0.8,0.8c0,4.1,3.3,7.3,7.4,7.3
		c4.1,0,7.4-3.3,7.4-7.3c0-5.1-5.5-9.8-7.2-11.1c-0.3-0.3-0.4-0.7-0.1-1.1c0.3-0.3,0.7-0.4,1.1-0.1c2.3,1.8,7.8,6.6,7.8,12.3
		C20.8,18.8,16.9,22.8,12,22.8z"/>
</g>
<g>
	<path class="st0" d="M5,10.4c-0.1,0-0.2,0-0.3-0.1c-0.4-0.2-0.5-0.6-0.4-1c1.8-3.7,5.2-6.6,6.7-7.7c0.6-0.5,1.5-0.5,2.1,0
		c0.3,0.3,0.4,0.7,0.1,1.1c-0.3,0.3-0.7,0.4-1.1,0.1c-0.1-0.1-0.2-0.1-0.3,0c-1.3,1-4.6,3.7-6.2,7.1C5.5,10.2,5.2,10.4,5,10.4z"/>
</g>
</svg>
