<?xml version="1.0" encoding="utf-8"?>
<!-- Generator: Adobe Illustrator 25.2.0, SVG Export Plug-In . SVG Version: 6.00 Build 0)  -->
<svg version="1.1" id="Layer_1" xmlns="http://www.w3.org/2000/svg" xmlns:xlink="http://www.w3.org/1999/xlink" x="0px" y="0px"
	 viewBox="0 0 24 24" style="enable-background:new 0 0 24 24;" xml:space="preserve">
<path class="st0" d="M16.6,7.4L6.3,17.7c-0.5,0.5-1.3,0.4-1.6-0.2c-0.5-1.1-0.8-2.3-0.8-3.6c0-5.5,5.6-10.2,7.5-11.7
	c0.4-0.3,0.9-0.3,1.2,0c0.9,0.7,2.5,2,4,3.8C17,6.4,17,7,16.6,7.4z"/>
<path class="st0" d="M20.1,13.9c0,4.5-3.6,8.1-8.1,8.1c-1.8,0-3.5-0.6-4.8-1.6c-0.5-0.4-0.5-1.1-0.1-1.5L17.2,8.8
	c0.5-0.5,1.3-0.4,1.6,0.2C19.6,10.6,20.1,12.2,20.1,13.9z"/>
</svg>
