<?xml version="1.0" encoding="utf-8"?>
<!-- Generator: Adobe Illustrator 25.2.0, SVG Export Plug-In . SVG Version: 6.00 Build 0)  -->
<svg version="1.1" id="Layer_1" xmlns="http://www.w3.org/2000/svg" xmlns:xlink="http://www.w3.org/1999/xlink" x="0px" y="0px"
	 viewBox="0 0 24 24" style="enable-background:new 0 0 24 24;" xml:space="preserve">
<g>
	<path class="st0" d="M7.9,21.3c-0.8,0-1.5-0.2-2.2-0.6c-1.6-0.9-2.4-2.7-2.4-5.1V8.4c0-2.4,0.9-4.2,2.4-5.1
		c1.6-0.9,3.6-0.7,5.7,0.5l6.2,3.6c2.1,1.2,3.2,2.9,3.2,4.7s-1.2,3.5-3.2,4.7l-6.2,3.6C10.1,20.9,8.9,21.3,7.9,21.3z M7.9,4.2
		c-0.5,0-1,0.1-1.5,0.4c-1.1,0.6-1.7,2-1.7,3.8v7.1c0,1.9,0.6,3.2,1.7,3.8c1.1,0.6,2.6,0.5,4.2-0.5l6.2-3.6c1.6-0.9,2.5-2.1,2.5-3.4
		s-0.9-2.4-2.5-3.4l-6.2-3.6C9.6,4.5,8.7,4.2,7.9,4.2z"/>
</g>
</svg>
