<?xml version="1.0" encoding="utf-8"?>
<!-- Generator: Adobe Illustrator 25.2.0, SVG Export Plug-In . SVG Version: 6.00 Build 0)  -->
<svg version="1.1" id="Layer_1" xmlns="http://www.w3.org/2000/svg" xmlns:xlink="http://www.w3.org/1999/xlink" x="0px" y="0px"
	 viewBox="0 0 24 24" style="enable-background:new 0 0 24 24;" xml:space="preserve">
<path class="st0" d="M17.5,9.6L5.6,16.8C4.9,17.2,4,16.7,4,15.9v-8c0-3.5,3.8-5.7,6.8-3.9l4.6,2.6l2.1,1.2
	C18.2,8.2,18.2,9.2,17.5,9.6z"/>
<path class="st0" d="M18.1,15.5L14,17.8l-4,2.3C8.5,21,6.9,20.8,5.7,20c-0.6-0.4-0.5-1.3,0.1-1.6l12.7-7.6c0.6-0.4,1.4,0,1.5,0.7
	C20.3,12.9,19.6,14.6,18.1,15.5z"/>
</svg>
