<?xml version="1.0" encoding="utf-8"?>
<!-- Generator: Adobe Illustrator 25.2.0, SVG Export Plug-In . SVG Version: 6.00 Build 0)  -->
<svg version="1.1" id="Layer_1" xmlns="http://www.w3.org/2000/svg" xmlns:xlink="http://www.w3.org/1999/xlink" x="0px" y="0px"
	 viewBox="0 0 24 24" style="enable-background:new 0 0 24 24;" xml:space="preserve">
<g>
	<path class="st0" d="M20.7,18.9c-0.4,0-0.9-0.1-1.4-0.4l-3.7-2.1c-0.2-0.1-0.4-0.4-0.4-0.7V9c0-1.3-1.1-2.4-2.4-2.4H8
		c-0.4,0-0.8-0.3-0.8-0.8V5.1C7.2,3,9,1.2,11.1,1.2h7.8c2.1,0,3.9,1.7,3.9,3.9v11.4c0,1-0.4,1.7-1,2.1
		C21.4,18.8,21.1,18.9,20.7,18.9z M16.8,15.3l3.3,1.8c0.4,0.2,0.7,0.2,0.9,0.1c0.2-0.1,0.3-0.4,0.3-0.8V5.1c0-1.3-1.1-2.4-2.4-2.4
		h-7.8c-1.3,0-2.4,1.1-2.4,2.4v0h4.1c2.1,0,3.9,1.7,3.9,3.9V15.3z"/>
</g>
<g>
	<path class="st0" d="M14.7,22.7c-0.4,0-0.9-0.1-1.4-0.4l-3.9-2.2c-0.2-0.1-0.6-0.1-0.8,0l-3.9,2.2c-0.8,0.5-1.7,0.5-2.4,0.1
		c-0.7-0.4-1-1.2-1-2.1c0-0.4,0.3-0.8,0.8-0.8s0.8,0.3,0.8,0.8c0,0.4,0.1,0.7,0.3,0.8c0.2,0.1,0.5,0.1,0.9-0.1l3.9-2.2
		c0.7-0.4,1.6-0.4,2.2,0l3.9,2.2c0.4,0.2,0.7,0.2,0.9,0.1c0.2-0.1,0.3-0.4,0.3-0.8V9c0-1.3-1.1-2.4-2.4-2.4H5.1
		C3.8,6.6,2.8,7.7,2.8,9v6.5c0,0.4-0.3,0.8-0.8,0.8s-0.8-0.3-0.8-0.8V9c0-2.1,1.7-3.9,3.9-3.9h7.8c2.1,0,3.9,1.7,3.9,3.9v11.4
		c0,1-0.4,1.7-1,2.1C15.4,22.7,15.1,22.7,14.7,22.7z"/>
</g>
</svg>
