<?xml version="1.0" encoding="utf-8"?>
<!-- Generator: Adobe Illustrator 25.2.0, SVG Export Plug-In . SVG Version: 6.00 Build 0)  -->
<svg version="1.1" id="Layer_1" xmlns="http://www.w3.org/2000/svg" xmlns:xlink="http://www.w3.org/1999/xlink" x="0px" y="0px"
	 viewBox="0 0 24 24" style="enable-background:new 0 0 24 24;" xml:space="preserve">
<path class="st0" d="M12.9,5.9H5.1C3.4,5.9,2,7.3,2,9v11.4c0,1.5,1,2.1,2.3,1.4l3.9-2.2c0.4-0.2,1.1-0.2,1.5,0l3.9,2.2
	c1.3,0.7,2.3,0.1,2.3-1.4V9C16,7.3,14.6,5.9,12.9,5.9z"/>
<path class="st0" d="M22,5.1v11.4c0,1.5-1,2.1-2.3,1.4l-1.9-1.1c-0.2-0.1-0.3-0.3-0.3-0.4V9c0-2.5-2.1-4.6-4.6-4.6H8.8
	C8.4,4.4,8.2,4,8.4,3.7C8.9,2.7,9.9,2,11.1,2h7.8C20.6,2,22,3.4,22,5.1z"/>
</svg>
